<?xml version="1.0" encoding="utf-8"?>
<!-- Generator: Adobe Illustrator 24.0.3, SVG Export Plug-In . SVG Version: 6.00 Build 0)  -->
<svg version="1.1" xmlns="http://www.w3.org/2000/svg" xmlns:xlink="http://www.w3.org/1999/xlink" x="0px" y="0px"
	 viewBox="0 0 102.5 151.7" style="enable-background:new 0 0 102.5 151.7;" xml:space="preserve">
<style type="text/css">
	.st0{display:none;opacity:0.33;}
	.st1{fill:#1C1200;}
	.st2{fill:#E5EBAE;stroke:#000000;stroke-miterlimit:10;}
	.st3{fill:#FCDAC2;stroke:#000000;stroke-miterlimit:10;}
	.st4{fill:#FCDAC2;}
	.st5{fill:none;stroke:#000000;stroke-miterlimit:10;}
	.st6{fill:#E5A377;}
	.st7{fill:#F18C6C;}
	.st8{fill:#FFFFFF;enable-background:new    ;}
	.st9{display:none;fill:none;stroke:#1D1D1B;stroke-width:0.5;stroke-miterlimit:10;}
	.st10{display:none;}
	.st11{display:inline;}
	.st12{fill:#4F1818;}
	.st13{fill:#FF9A94;}
	.st14{display:inline;fill:#FFFFFF;}
	.st15{fill:#1D1D1B;}
	.st16{display:inline;fill:#D8AB8D;}
	.st17{display:inline;enable-background:new    ;}
	.st18{display:inline;fill:none;}
	.st19{fill:#FFFFFF;}
	.st20{font-family:'Impact';}
	.st21{font-size:10px;}
	.st22{fill:none;}
	.st23{fill:#676B70;}
	.st24{fill:#F49C8E;}
</style>
<g id="Capa_2" class="st0">
	
		<image style="display:inline;overflow:visible;" width="3456" height="4608" xlink:href="IMG_20200219_130538.jpg"  transform="matrix(5.467606e-02 0 0 5.467606e-02 -12.1586 190.0975)">
	</image>
</g>
<g id="Capa_3">
	<path class="st1" d="M15.2,79.2C3.5,74.7-0.2,48.5,13.3,27.8C30,2.3,53-5.1,81.1,6.4c28.1,11.5,23.6,32.5,14,43.3
		c-3.5,4-10.7,9.6-19.9,6.8C63.7,53,64.7,48,57.7,47.7c-0.9,0-15.7-1.2-21.2,7.8c-2.9,4.6-0.9,10-3.1,15.4
		C29.5,80.2,22.8,82,15.2,79.2z"/>
	<path class="st2" d="M126,426c1.2-4.5-0.5-7.9-0.5-7.9c-1.9-3.7-7.9-8.4-11.6-11.3c-0.2-0.1-0.7-0.5-0.8-1.2
		c-0.2-0.7,0.2-1.3,0.2-1.4c0.8-1.7,2.1-13.6,1.9-16c-1.2-9.6-49.3-29.1-68.5-5.3c-9.8,12.1-9.4,34.4-0.7,46.6
		C45.9,429.5,122.3,439.4,126,426z"/>
	<path class="st3" d="M89.7,392.4c-12.8,0-14.3-7.5-14.3-7.5l8.6-1.3l14.1,1.6l1.1,1.8C99.1,386.9,97.6,392.4,89.7,392.4z"/>
	<path class="st4" d="M141.5,364.3c0.5-1.3,0.6-2.7,0.5-4.5c0-0.5-0.3-3.2-1.7-3.6c-3.7-1-3.6,2-5.3,1.4c-3.4-1.2-1.2-15.5,3-42.8
		c1.2-7.3,0.3-22.6-2.6-29.2c-3.9-9-13.2-14.4-18.5-17c-5.4-2.7-29.9-14.8-53.1-0.9c-15.2,9.1-23.1,19.3-23.9,37
		c-0.1,1.4-0.1,5,0,12.2c0.3,18.3,1.6,33.1,0.4,33.3c-0.4,0.1-0.5-1.9-2.4-4.4c-0.3-0.4-3.8-4.8-6.7-4.1c-2.9,0.7-3.9,6.2-3.9,9.4
		c-0.1,7.6,5.2,15.6,9.6,15.4c1.9-0.1,2.9-1.7,3.9-1.1c1.8,1-0.7,6,1.1,10.4c0.4,1,1.8,3.8,7.4,6.3c7.4,3.4,13.1,2.4,26.1,2.6
		c4.7,0.1,9.3,0.2,15.2,0.8c3.2,0.4,6,0.8,8.4,1.2c8.7,1.5,13.7,2.8,20.7,0.8c5.7-1.7,7-4.1,7.4-5c1.8-4-1.4-9.1,0.4-10.2
		c0.7-0.4,1.3,0.2,2.8,0.2c3,0.1,5.4-1.9,6.5-2.8c1.5-1.2,7.7-7.4,2.6-8.3c-1.2-0.2-2.4,0.3-3.5,0.8c-1.2,0.6-2.5,1.3-3.6,2
		c-0.8,0.5-1.6,1.1-1.6,2"/>
	<path class="st5" d="M27.5,354.1c-0.4-1,0-1.6,0.9-2.3c0.9-0.7,1.9-1.2,3-1.3c2.3-0.3,4.5,1.2,5.8,3.1c1.3,1.9,1.8,4.2,2.3,6.5"/>
	<path class="st6" d="M95.3,376.3c-14.1-3.4-13.6,1.3-26.3-0.3l2.5-1.5c0.2-1.8,1.3-2.1,2.9-3c3.1-1.8,5.4-2,8.9-2.5
		c2.5-0.4,7.6,0.2,10,1c4.2,1.5,7.8,3.7,8.6,7.1L95.3,376.3z"/>
	<path class="st5" d="M75.9,235.1c-0.3-0.1-0.6-0.3-0.7-0.5c-0.3-0.5,0-1.1,0.4-1.4c1.5-1.6,3.8-1.8,6-1.9
		c6.8-0.3,14.1,0.3,19.7,4.2c0.5,0.4,1.1,1.1,0.6,1.6c-0.1,0.1-0.3,0.2-0.5,0.2c-4.2,0.9-8.2,0.9-12.4,0.2c-2.1-0.4-4.2,0-6.3-0.4
		C80.3,236.6,78,236,75.9,235.1z"/>
	<path class="st5" d="M88.9,244.1c-0.2-4.1-1.1-4.3-0.7-8.4"/>
	<path class="st5" d="M61.9,269.1c53.1,0.9,55.3,2.1,59.1,1.8s19.2-5.5,20-7.7l2,1.9c-5.6,4.5-12.7,6.8-19.9,7.6
		c-7.2,0.8-14.4,0.3-21.6-0.1c-14.3-0.9-28.6-1.4-42.8-1.7L61.9,269.1z"/>
	<path class="st5" d="M118.9,273.1c0,0-27.7,2.7-60.2-2.2c-5.6-0.8-2.2-9.1,0.4-14.1c2-3.7,9.5-13.1,29.2-14.7
		c6.4-0.5,20.7,3.2,26.4,8.8c6.7,6.7,5.7,15.7,5.7,19.4L118.9,273.1z"/>
	<path class="st5" d="M37.3,362c-2.4-0.5-4.1-2.8-4.3-5.2c-0.1-1,0.1-2.1,0.5-3.1c0.5-0.9,1.3-1.7,2.3-2.1"/>
	<path class="st5" d="M131.1,369.1c1.5,0.5,3.4-0.3,4.2-1.7c0.9-1.4,0.9-3.2,0.3-4.7"/>
	<line class="st5" x1="27.3" y1="430.1" x2="159.5" y2="426.8"/>
	<path class="st4" d="M153.9,426.5c0.9-0.9,1.8-2,2.6-3c0.7-1,1.4-2.1,1.4-3.3c0-1.6-1.2-3-2.4-4.1c-3.6-2.9-8.5-3.8-11.9-7
		l-1.6-0.8c0-1.1-0.2-2.2-0.5-3.2c-0.1-0.3-0.2-0.5-0.5-0.7c-0.3-0.1-0.6,0-0.9,0.1c-5.3,2.4-10.2,5.4-14.8,9
		c-2.2,1.7-4.3,3.6-5.8,6s-2.1,5.4-1.3,8L153.9,426.5z"/>
	<path class="st5" d="M138.2,415c-1,0.5-1.9,1.1-2.9,1.6c-1.2,0.7-2.4,1.3-3.4,2.3c-1.1,1.1-1.8,2.6-2.5,4.1c-0.7,1.5-1.4,3-2.2,4.5
		"/>
	<path class="st5" d="M144,420c-3,1.7-5.6,4.1-7.5,7"/>
	<path class="st5" d="M144.6,426.7c1.7-1.2,3.5-2.2,5.4-2.9"/>
	<path class="st4" d="M53.3,388.9c0.5-0.1,1-0.2,1.4,0c0.5,0.2,0.9,0.7,1.2,1.2c3.2,5.7,5.6,11.7,7.3,18l0.4,3.5
		c-2.2,2.4-3.9,4.5-6.5,6.4c0.5,3.7,3.8,6.9,5.4,10.4l-26.6,1.7c0.1-1.4-1.9-3.3-2-4.5l3-0.1c-1.8-0.2-3.6-0.3-5.5-0.5
		c-0.3,0-0.6,0-0.8-0.2c-0.3-0.1-0.5-0.4-0.6-0.6c-1.9-2.5-3-3.4-4.3-6.3l-0.5-2l-3.2-11.3l1.6-1.7l6.6-10.1
		c-0.6-5.8-2.2-13.2-2.8-18.9c2.4-0.7,4.8-1.2,7.2-1.4c0.4,0,0.8-0.1,1.1,0.2c0.3,0.2,0.4,0.7,0.5,1.1c1.4,6.6,2.8,13.1,4.2,19.7
		c0.9-0.2,1.8-0.3,2.7-0.5c-2.7-5.9-3.8-12.5-3.1-18.9c0-0.3,0.1-0.6,0.3-0.8c0.2-0.2,0.4-0.2,0.7-0.2c2.2-0.1,4.5,0,6.7,0.3
		c0.7,0.1,1.4,0.2,1.9,0.8c0.3,0.4,0.4,0.9,0.4,1.4c0.6,4.7,1,7.9,1.6,12.6L53.3,388.9z"/>
	<path class="st7" d="M96.7,380.8c-7.1,4.1-14.9,4.3-20.5,0.6c-2.2-1.5-5.5-2.6-4.4-5.1c0,0-0.2-1,6.6-1.2c1.4-0.1,6.5,2.8,8.1,2.8
		c1.4,0,6.4-2.7,7.8-2.6c2.9,0.3,3.5,0.5,6.7,1.4C102.5,377.1,98.7,379.7,96.7,380.8z"/>
	<path class="st3" d="M14.1,408.7c2.2-1.8,4.7-3.3,7.4-4.3c0.7-0.3,5.9,9.5,3.7,11.7C20.9,420.2,14.1,408.7,14.1,408.7z"/>
	<path class="st3" d="M21.9,398.4c2.7-1.8,5.5-3.5,8.3-5.1c0.3-0.2,0.7-0.4,1-0.3c0.3,0.1,0.5,0.4,0.7,0.7c2.8,4.4,5.4,8.9,7.7,13.6
		c0.3,0.5-5,3.4-5.6,3.6c-1.7,0.5-2.7,0.2-4.1-0.9C26.4,407.3,23.7,402.3,21.9,398.4z"/>
	<path class="st4" d="M46.7,60.4C16.2,69.5-3.9,99.4,0.6,105c0.5,0.7,1.7,0.9,2.5,0.8c2.6-0.4,0.9-4.7,5-10.7c2.5-3.8,7-6.7,7.9-6.9
		l2,0.5c-4.9,11.1-8.1,35.2,1.2,62.4c0.1,0.3,1.6,1,2.8,0.5c2.9-1.2-0.5-9.2,1.5-14l56.1,2c1.1,4-2.1,10.1,0.5,11.8
		c0.9,0.6,2.4,0.5,3.3,0c7.1-4.3-8.2-47.3-2-61.1c0.2-0.4,1.4-3.2,2.5-3c1.7,0.2,3,7.5,3.5,11.5c0.2,1.6,0.3,3.3,1.5,4
		c1.2,0.7,3.8,0.4,3.8-0.5c-0.3-11.7-1.8-20.2-9.6-29c-5.6-6.2-12.3-9.5-17.2-11.2c-3.4-1.2-5.6-4.5-5.3-8.1
		c0.2-1.9,0.1-4.1-0.7-6.5c-0.2-0.8-1.4-3-3.8-4c-5.2-2.1-9.8,3-9.8,6.6C46.4,55.8,46.7,60.4,46.7,60.4z"/>
	<path class="st4" d="M45.1,53.4c-0.3-0.3-0.6-0.6-1-0.8c-0.4-0.1-0.9-0.1-1.1,0.3c-0.1,0.2-0.1,0.3-0.1,0.5
		c-0.1,1.5,1.3,2.8,2.8,2.7c0,0,0.2-1.2-0.3-2.4L45.1,53.4z"/>
	<path class="st4" d="M60.4,53.9c0.2-0.7,1.4-1,2.1-0.9c-0.3,1.3-1.5,2.3-2.8,2.5C60.1,54.9,60.4,53.9,60.4,53.9z"/>
	<path class="st8" d="M62.6,42.9c2.1-2.9,2.2-7.3-0.1-10c-1-1.2-2.5-2.1-4-1.8c-1.9,0.3-3.1,2.3-3.8,4.1c-0.7,1.8-1.2,3.8-2.8,5
		c-1.7,1.3-4.4,1.2-5.7,3c-0.8,1-0.8,2.5-0.5,3.7c0.3,1.2,0.4,2.6,0.6,3.8c0.3-1.5,0.3-4.1,2-4.8c1.5-0.6,3.4,0.8,4.8,0.9
		C56.7,47.2,60.5,45.8,62.6,42.9z"/>
	<g>
		<path class="st1" d="M33.4,72c2.8-1.1,6.5-0.2,8.6,2.4l-1,0.8c-0.7-0.8-1.3-1.6-1.9-2.4c-0.3-0.4-0.6-0.9-0.8-1.4
			c-0.2-0.5-0.5-1-0.6-1.6l0.8-1.1c2.2-0.3,4.5,0.2,6.5,1.3c2,1.1,3.7,2.7,4.7,4.8L47.2,76c-0.8-1.6-1.2-3.3-1.4-5l1.8-1.4
			c2.6,0.6,4.8,2.5,6,4.9l-2.7,1.1c-0.4-1.3-0.7-2.5-0.9-3.8c-0.1-0.7-0.2-1.3-0.2-2c0-0.3,0-0.6,0-1c0-0.2,0-0.7,0.4-1.3
			c0.3-0.5,1.1-0.9,1.6-0.8c0.5,0,0.9,0.1,1.1,0.3c0.3,0.1,0.5,0.3,0.7,0.5c0.1,0.1,0.2,0.2,0.3,0.3l0.2,0.2
			c0.1,0.1,0.2,0.3,0.3,0.4c0.4,0.6,0.8,1.2,1.1,1.8c0.6,1.3,1.1,2.6,1.2,4L54,73.6l0.9-2.1l0.2-0.5l0.1-0.3
			c0.1-0.1,0.1-0.2,0.2-0.4c0.1-0.3,0.3-0.5,0.7-0.8c0.2-0.1,0.4-0.3,0.7-0.4c0.3-0.1,0.7-0.1,1,0c0.7,0.2,1.1,0.6,1.2,0.9
			c0.2,0.3,0.3,0.6,0.4,0.7c0.2,0.4,0.3,0.8,0.4,1.2c0.2,0.8,0.3,1.7,0.4,2.5l-2.2-0.7l1.8-2.1l0.4-0.5c0.2-0.2,0.4-0.4,0.6-0.6
			c0.2-0.2,0.5-0.4,0.8-0.6c0.3-0.2,0.7-0.3,1.3-0.3c0.5,0,1,0.3,1.3,0.6c0.3,0.3,0.4,0.7,0.5,1c0.2,0.6,0.2,1,0.3,1.5l0.4,2.7
			l-1.5-0.3c0.4-0.6,0.8-1.1,1.2-1.7c0.2-0.3,0.4-0.5,0.7-0.8c0.2-0.2,0.4-0.5,0.8-0.8c0.3-0.3,0.9-0.5,1.4-0.4
			c0.5,0.1,0.9,0.5,1.1,0.9c0.4,0.9,0.1,1.6,0,2.3l-0.6-0.4c0.7-0.3,1.3-0.9,2-1.3c0.4-0.2,0.8-0.4,1.2-0.3c0.4,0,0.8,0.2,1.1,0.6
			C72.4,73.1,72,73,71.6,73c-0.4,0-0.7,0.2-1,0.5c-0.6,0.5-1.1,1.1-1.9,1.6l-0.6-0.4c0.1-0.6,0.1-1.3-0.1-1.6
			c-0.1-0.2-0.3-0.3-0.4-0.3c-0.1,0-0.2,0-0.4,0.2c-0.2,0.2-0.3,0.4-0.5,0.7c-0.2,0.3-0.4,0.5-0.5,0.8c-0.3,0.5-0.7,1.1-1,1.7
			l-1.5-0.3L63,73.2c-0.1-0.4-0.2-1-0.3-1.2c-0.1-0.1-0.1-0.2-0.1-0.2c0,0,0,0.1,0.1,0.1c0.1,0-0.1,0.1-0.3,0.3
			c-0.1,0.1-0.2,0.2-0.3,0.4l-0.4,0.6l-1.6,2.2l-2.2-0.7c-0.1-0.7-0.2-1.3-0.4-1.9c-0.1-0.3-0.2-0.6-0.3-0.9
			c-0.1-0.2-0.1-0.3-0.1-0.3c0,0,0.1,0.1,0.4,0.2c0.3,0.1,0.6-0.1,0.6-0.1c0.1-0.1,0,0,0,0.1l-0.1,0.1l-0.1,0.3l-0.2,0.5l-0.8,2.1
			l-2.7-0.4c-0.1-1-0.5-2.1-1-3c-0.2-0.5-0.5-0.9-0.9-1.3c-0.1-0.1-0.2-0.2-0.3-0.3l-0.1-0.1l0,0c0-0.1-0.2,0,0.2,0
			c0.2,0,0.7-0.2,0.8-0.4c0.2-0.3,0.1-0.4,0.2-0.4l0,0.8c0,0.6,0.1,1.2,0.2,1.7c0.2,1.1,0.4,2.3,0.7,3.4L51,75.7
			c-0.8-1.6-2.4-2.9-4.1-3.4l1.8-1.4c0,1.4,0.4,2.8,0.9,4.1L47.2,76c-0.7-1.6-2-3-3.5-3.9c-1.5-1-3.4-1.5-5.2-1.4l0.8-1.1
			c0,0.4,0.2,0.8,0.4,1.2c0.2,0.4,0.4,0.9,0.6,1.3c0.5,0.8,1,1.7,1.5,2.5l-1,0.8C39.4,72.9,36.4,71.5,33.4,72z"/>
	</g>
	<path class="st9" d="M37.7,33.4c0.1,0.3,0.3,0.6,0.6,0.8c-0.4-0.1-0.8-0.2-1.2-0.3c0.5,0.8,1,1.5,1.5,2.2c-0.2-0.1-0.5-0.2-0.7-0.3
		c0.3,0.7,0.7,1.4,1.1,2.1c-0.3,0-0.5-0.1-0.7-0.3c0,0.7,0.3,1.4,0.7,2c-0.1,0-0.2,0-0.3-0.1c0.3,0.6,0.6,1.3,0.9,1.9
		c-0.6-0.2-1.2-0.8-1.5-1.4c0.2,0.6,0.7,1.1,1.1,1.6"/>
	<path class="st1" d="M53.2,106.4c-0.9,0.3-1.8,2.8-1.8,3c-0.2,0.6-0.6,2,1.9,1.5c0.3-0.1,0.5-0.6,0.4-0.9c-0.1-0.6-1-0.6-1.5-0.6"
		/>
	<g class="st10">
		<g class="st11">
			<path class="st12" d="M49,36.5c-2,0-4.5-0.4-6.4,0c-0.8,0.2-0.8,0.6-0.8,1.3c1.1,0,3.3,1.4,3.4,3c0,0.4,0,1.1-0.4,1.3
				c-0.7,0.4-2-0.8-2.1-0.9c-0.3-0.3-0.5-0.6-0.7-0.9c0,0,0,0.1,0,0.1c0.5,2.6,5,3.8,6.5,1.4c0.2-0.4,0.3-0.8,0.4-1.3
				C49.1,39.2,49.1,37.8,49,36.5z"/>
			<path class="st13" d="M44.8,42.1c0.4-0.2,0.5-0.9,0.4-1.3c-0.2-1.6-2.4-2.9-3.4-3c0,0.2,0,0.4,0,0.7c0,0.6,0,1.2,0.1,1.8
				c0.2,0.3,0.5,0.6,0.7,0.9C42.8,41.3,44.1,42.5,44.8,42.1z"/>
		</g>
		<polygon class="st14" points="41.4,36.9 49.4,38.5 48.3,35.7 42.3,35.9 		"/>
		<path class="st14" d="M41.9,39.9c0,0,1.4,2,3.8,1.8c2.8-0.3,3.2-0.3,3.2-0.3l-0.1,1.2C48.2,43.1,42,44.3,41.9,39.9z"/>
		<g class="st11">
			<path class="st15" d="M41,37.2c-0.2-0.2-0.1-0.4,0.1-0.6c0.2-0.2,0.4-0.3,0.6-0.3c0.4-0.2,0.6-0.5,0.8-0.9l0.2,0.2
				c-0.5,0.4-0.8,0.9-1,1.5l-0.3-0.2c0.8-0.5,1.5-1.1,2-1.9l0.5,0.3L43,37.1l-0.5-0.3L44,35l0.6-0.6l0,0.9l0,1.1L44,36.2
				c0.4-0.4,0.7-0.9,0.9-1.5l0.4-1.4l0.3,1.5c0.1,0.6,0.2,1.3,0.3,1.9l-0.5-0.2c0.4-0.2,0.5-0.9,0.5-1.5l0-1.6l0.6,1.5l1.2,2.7
				l-0.6,0c0.3-0.6,0.3-1.3,0.2-1.9l0.6-0.2c0.2,0.5,0.4,1.1,0.8,1.6l-0.4,0.2c0-0.4-0.1-0.9-0.2-1.3l-0.3-1l0.7,0.8
				c0.4,0.5,0.8,1,1.1,1.4l-0.3,0.1c0.1-0.5,0-1-0.2-1.5l0.1-0.1l0.9,1.4l-1.1-1.3l0.1-0.1c0.2,0.5,0.4,1,0.3,1.6l0,0.3l-0.2-0.3
				c-0.4-0.4-0.8-0.9-1.2-1.4l0.4-0.2c0.2,0.5,0.3,0.9,0.3,1.4l0,0.8l-0.5-0.7c-0.4-0.5-0.7-1.1-0.9-1.6l0.6-0.2
				c0.2,0.8,0.2,1.6-0.1,2.3l-0.3,0.7l-0.3-0.7L46,35l0.7-0.1c0,0.4,0,0.7-0.1,1.1c-0.1,0.4-0.3,0.8-0.7,1l-0.4,0.2l-0.1-0.5
				c-0.1-0.7-0.2-1.3-0.3-2l0.7,0.1c-0.2,0.7-0.6,1.3-1.1,1.8l-0.6,0.6l0-0.8l0-1.3l0.6,0.2L43,37.1l-1.5,1.7l1-2l0.9-1.9l0.5,0.3
				c-0.6,0.8-1.4,1.5-2.3,1.9l-0.5,0.2l0.2-0.5c0.2-0.6,0.7-1.2,1.2-1.6l0.6-0.4l-0.4,0.6c-0.1,0.2-0.3,0.4-0.4,0.5
				c-0.2,0.2-0.4,0.3-0.6,0.4c-0.2,0.1-0.4,0.1-0.6,0.3C41,36.7,40.8,37,41,37.2z"/>
		</g>
		<path class="st16" d="M44.5,30.9c-0.4,1.7,0.1,3.7,0.6,4.7c0.2,0.5,0.7,0.8,1.2,0.7l1.2-0.2c0.8-0.1,1.2-1.1,0.7-1.8L47,33
			c-0.1-0.2-0.2-0.4-0.2-0.6L46.6,31c-0.1-0.5-0.4-0.9-0.9-0.9l0,0C45.2,30,44.6,30.3,44.5,30.9z"/>
	</g>
	<circle class="st15" cx="50.4" cy="50.3" r="0.6"/>
	<circle class="st15" cx="57.5" cy="50.3" r="0.6"/>
	<path class="st9" d="M40.4,30.9c0.8-0.1,1.6,0,2.4,0c0.8-0.1,1.7-0.3,2.2-0.8"/>
	<path class="st9" d="M47.8,29c0.6-0.2,1.4-0.2,2,0.1s1.1,0.9,1.1,1.6"/>
	<g class="st10">
		<path class="st17" d="M142.5,58.8c-5.1,14.5-24.9,14.4-43.8,7.7c-18.9-6.7-29.8-17.4-24.7-31.9s21.2-13.5,40.1-6.8
			S147.6,44.3,142.5,58.8z"/>
		<rect x="92" y="22.7" transform="matrix(0.3334 -0.9428 0.9428 0.3334 23.847 130.8851)" class="st18" width="25" height="51.8"/>
		<text transform="matrix(0.9428 0.3334 -0.3334 0.9428 89.5868 38.418)" class="st11"><tspan x="0" y="0" class="st19 st20 st21">SCAN MY </tspan><tspan x="-0.1" y="10" class="st19 st20 st21">TATTOOS</tspan></text>
		<path class="st17" d="M78.5,51.8c-2.1-1.5-9.8,1.3-9.7,2.5c0.2,1.3,9.6,2.3,10.7,0.6C80.1,54.1,79.5,52.5,78.5,51.8z"/>
	</g>
	<path id="SVGID_x5F_1_x5F_" class="st22" d="M20.8,69.9c0,0-4.7-42.3,32.9-43.9C87,24.7,84.3,50.3,84.3,50.3"/>
	<text>	<textPath  xlink:href="#SVGID_x5F_1_x5F_" startOffset="9.765625e-02%">
<tspan  class="st19 st21" style="font-family:'FredokaOne-Regular';">scan</tspan><tspan  class="st19" style="font-family:'FredokaOne-Regular'; font-size:13px;"> my </tspan><tspan  class="st19" style="font-family:'FredokaOne-Regular'; font-size:17px;">tattoo</tspan>	</textPath>
</text>
	<path class="st1" d="M70.7,58.2c0,0-0.2-1.6,0.6-0.7c0.9,1.1,4.5,0.9,5.6,0.6c1.9-0.5,3.2-3.2,3.2-3.2l3.9,1.6c0,0-3,3.7-7.8,3.7
		C71.8,60.2,70.7,58.2,70.7,58.2z"/>
	<g class="st10">
		<g class="st11">
			<path class="st19" d="M20.2,58.3c-0.2,0.1-0.3,0.1-0.4,0.1c-0.1,0-0.3-0.1-0.4-0.4c-0.1-0.1-0.1-0.3-0.1-0.4
				c0-0.1,0.2-0.3,0.4-0.5c0.1-0.1,0.2-0.1,0.3-0.2c0.1-0.1,0.1-0.2,0.2-0.3c0.1-0.4-0.1-0.7-0.4-0.7c-0.1,0-0.2,0-0.3,0.1
				c-0.1,0.1-0.2,0.2-0.2,0.4c-0.1,0.2-0.1,0.4-0.2,0.5c-0.1,0.2-0.2,0.4-0.3,0.5c-0.1,0.2-0.3,0.3-0.5,0.4C17.9,58,17.6,58,17.3,58
				c-0.4-0.1-0.7-0.3-1-0.6C16.1,57,16,56.6,16,56c0-0.3,0.1-0.5,0.2-0.7c0.1-0.2,0.2-0.4,0.3-0.4l0.2-0.2c0.2-0.1,0.3-0.2,0.4-0.2
				c0.1,0,0.2,0.1,0.4,0.2c0.2,0.2,0.3,0.4,0.3,0.5c0,0.1-0.1,0.2-0.2,0.3c0,0,0,0-0.1,0.1c0,0-0.1,0.1-0.1,0.1
				c-0.1,0.1-0.1,0.2-0.1,0.4c0,0.2,0,0.3,0.1,0.4c0.1,0.1,0.1,0.2,0.3,0.2c0.1,0,0.2,0,0.3-0.1c0.1-0.1,0.2-0.2,0.2-0.4
				c0.1-0.2,0.1-0.4,0.2-0.6s0.2-0.4,0.3-0.5s0.3-0.3,0.5-0.4c0.2-0.1,0.5-0.1,0.8-0.1c0.3,0,0.6,0.1,0.8,0.3
				c0.2,0.2,0.4,0.3,0.5,0.5c0.2,0.4,0.3,0.8,0.2,1.3c0,0.2-0.1,0.4-0.2,0.6c-0.1,0.2-0.2,0.3-0.3,0.4C20.7,58,20.5,58.2,20.2,58.3
				L20.2,58.3z"/>
			<path class="st19" d="M20.9,50.7l-0.1-0.2c-0.1-0.2-0.1-0.3-0.1-0.4c0-0.2,0.2-0.3,0.6-0.4c0.2-0.1,0.4-0.1,0.5-0.1
				c0.1,0,0.2,0.1,0.2,0.2c0.1,0.1,0.1,0.2,0.1,0.3c0,0.1,0.1,0.2,0.1,0.3c0,0.1,0.1,0.3,0.1,0.6c0,0.3,0,0.5-0.1,0.8
				c-0.1,0.2-0.2,0.5-0.3,0.7c-0.1,0.2-0.3,0.5-0.5,0.7c-0.2,0.2-0.5,0.4-0.7,0.6c-0.3,0.2-0.6,0.3-1,0.3s-0.8,0-1.2-0.1
				c-0.4-0.1-0.8-0.3-1.1-0.5c-0.3-0.2-0.5-0.5-0.7-0.7s-0.3-0.5-0.4-0.8c-0.2-0.6-0.2-1.1-0.1-1.6c0.1-0.2,0.2-0.5,0.3-0.7
				s0.3-0.4,0.4-0.5l0.2-0.2c0.1-0.1,0.1-0.1,0.2-0.2c0.1-0.1,0.3-0.1,0.4-0.1c0.1,0,0.3,0.1,0.4,0.3c0.2,0.3,0.3,0.5,0.3,0.6
				c0,0.1-0.1,0.2-0.3,0.4c-0.2,0.2-0.4,0.4-0.5,0.8c-0.1,0.3,0,0.7,0.1,1.1c0.1,0.2,0.2,0.4,0.4,0.5s0.4,0.3,0.7,0.3s0.5,0.1,0.7,0
				c0.2-0.1,0.4-0.1,0.6-0.3c0.3-0.3,0.5-0.6,0.6-0.9c0-0.2,0.1-0.3,0-0.5C20.9,50.8,20.9,50.7,20.9,50.7z"/>
			<path class="st19" d="M18.4,43.8l5.6-0.5c0.2,0,0.4,0,0.5,0c0.2,0.1,0.3,0.3,0.4,0.7c0,0.2,0,0.4,0,0.5c0,0.1-0.1,0.2-0.2,0.2
				c-0.1,0.1-0.1,0.1-0.2,0.1c-0.1,0-0.2,0-0.3,0L22.9,45l-0.9,2.3l0.7,0.8c0.1,0.1,0.2,0.2,0.2,0.2c0,0,0.1,0.1,0.1,0.2
				c0,0.1,0,0.2,0,0.3c0,0.1-0.1,0.2-0.3,0.4c-0.3,0.3-0.5,0.4-0.7,0.3c-0.1,0-0.2-0.1-0.4-0.3l-3.8-4.1c-0.1-0.1-0.2-0.2-0.2-0.4
				c0-0.2,0-0.3,0-0.4C17.8,44,18,43.8,18.4,43.8z M20.1,45.2l0.9,1l0.4-1.1L20.1,45.2z"/>
			<path class="st19" d="M21.8,36.5c-0.1-0.1-0.1-0.2,0-0.3s0.1-0.2,0.2-0.4c0.1-0.1,0.2-0.3,0.3-0.3c0.1-0.1,0.2-0.1,0.2-0.1
				c0.1,0,0.1,0,0.2,0c0.1,0,0.2,0.1,0.4,0.2l4.3,2.6c0.1,0.1,0.2,0.1,0.3,0.2c0.1,0,0.1,0.1,0.2,0.2c0.1,0.2,0,0.4-0.2,0.7
				c-0.1,0.2-0.2,0.3-0.3,0.4s-0.2,0.1-0.3,0.1c-2.2,0.2-3.7,0.4-4.4,0.5l2.5,1.5c0.1,0.1,0.2,0.1,0.3,0.2s0.1,0.1,0.2,0.2
				c0.1,0.2,0,0.4-0.2,0.7c-0.2,0.3-0.4,0.5-0.6,0.5c-0.1,0-0.2,0-0.3-0.1s-0.2-0.1-0.3-0.1l-4.3-2.6c-0.2-0.1-0.3-0.2-0.4-0.3
				c-0.1-0.1-0.1-0.2,0-0.3c0-0.1,0.1-0.3,0.2-0.4s0.2-0.3,0.3-0.3s0.2-0.1,0.2-0.1c0,0,0.1,0,0.3-0.1c2.1-0.2,3.5-0.3,4.2-0.4
				l-2.6-1.6C22,36.7,21.9,36.6,21.8,36.5z"/>
			<path class="st19" d="M31.1,25.7c0.1,0,0.2,0.1,0.2,0.1c0.1,0.1,0.1,0.1,0.2,0.3l3.6,4.2c0.3,0.3,0.4,0.6,0.2,0.9
				c-0.1,0.1-0.2,0.2-0.3,0.4c-0.1,0.1-0.3,0.2-0.4,0.3c-0.1,0-0.2,0.1-0.3,0.1c-0.1,0-0.2,0-0.2-0.1c-0.1-0.1-0.2-0.2-0.4-0.4
				l-2.2-2.5c0,0.3,0,0.7,0.1,1.2c0,0.6,0.1,0.9,0.1,1c0,0.1,0,0.2,0,0.3c0,0.1,0,0.2-0.1,0.3c0,0.1-0.1,0.3-0.2,0.4
				c-0.1,0.1-0.2,0.2-0.4,0.2c-0.1,0-0.3,0-0.3,0l-0.1,0c-0.2,0-0.6-0.1-1.3-0.3c-0.7-0.2-1-0.2-1.1-0.2l2.2,2.6
				c0.1,0.1,0.2,0.2,0.2,0.3c0,0.1,0.1,0.1,0.1,0.3c0,0.2-0.1,0.4-0.4,0.7c-0.3,0.3-0.6,0.4-0.8,0.3c-0.1,0-0.2-0.1-0.2-0.1
				c-0.1-0.1-0.1-0.1-0.2-0.3l-3.6-4.2c-0.1-0.1-0.2-0.2-0.2-0.3c0-0.1-0.1-0.2-0.1-0.3c0-0.2,0.1-0.4,0.4-0.7
				c0.1-0.1,0.3-0.2,0.4-0.3s0.2-0.1,0.3-0.1l0.1,0l3.7,0.8c-0.1-1.9-0.2-3.1-0.2-3.7c0-0.2,0.1-0.5,0.4-0.7S30.9,25.6,31.1,25.7z"
				/>
			<path class="st19" d="M37.4,21.4c0.4,0.1,0.7,0.2,0.8,0.4c0.1,0.1,0.1,0.3,0,0.6l-0.5,4.2l1,1.9c0.1,0.2,0.1,0.3,0.2,0.3
				s0,0.2,0,0.3c0,0.1-0.1,0.2-0.2,0.3c-0.1,0.1-0.3,0.2-0.5,0.3C38.1,30,37.9,30,37.8,30c-0.1,0-0.3,0-0.4-0.1s-0.2-0.1-0.2-0.2
				c0-0.1-0.1-0.2-0.2-0.3L36,27.6l-3.7-2.1c-0.3-0.1-0.4-0.3-0.5-0.4c-0.1-0.2-0.1-0.5,0.1-0.8c0.2-0.3,0.3-0.5,0.5-0.6
				s0.2-0.1,0.3-0.1c0.1,0,0.3,0.1,0.6,0.2l2.8,1.7l0.3-3.2c0-0.3,0.1-0.4,0.1-0.6s0.2-0.2,0.3-0.3C36.8,21.4,37.1,21.4,37.4,21.4z"
				/>
			<g>
				<path class="st19" d="M40.5,19.3l5.8-1.4c0.2-0.1,0.4-0.1,0.5,0c0.1,0,0.2,0.1,0.3,0.2c0.1,0.1,0.1,0.3,0.2,0.5s0.1,0.4,0.1,0.5
					c0,0.1,0,0.2-0.1,0.3c-0.1,0.1-0.3,0.2-0.5,0.2l-2,0.5l1.4,5.9c0,0.2,0.1,0.3,0.1,0.4c0,0.1,0,0.2,0,0.3s-0.1,0.2-0.2,0.3
					c-0.1,0.1-0.3,0.1-0.5,0.2s-0.4,0.1-0.5,0.1c-0.1,0-0.2-0.1-0.3-0.2c-0.1-0.1-0.1-0.2-0.2-0.3s-0.1-0.2-0.1-0.4l-1.4-5.9l-2,0.5
					c-0.2,0.1-0.4,0.1-0.5,0s-0.2-0.1-0.3-0.2c-0.1-0.1-0.1-0.3-0.2-0.5c0-0.2-0.1-0.4-0.1-0.5c0-0.1,0-0.2,0.1-0.3
					C40.1,19.5,40.3,19.4,40.5,19.3z"/>
			</g>
			<g>
				<path class="st19" d="M52,17.3l3.7,7c0.2,0.3,0.2,0.5,0.2,0.6c0,0.3-0.2,0.6-0.6,0.9c-0.2,0.2-0.4,0.3-0.6,0.3
					c-0.1,0-0.3,0-0.4-0.1c-0.1-0.1-0.2-0.1-0.2-0.2c0-0.1-0.1-0.2-0.2-0.4L53.2,24L50,24.3l-0.5,1.4c-0.1,0.2-0.1,0.3-0.1,0.4
					c0,0.1-0.1,0.2-0.2,0.3c-0.1,0.1-0.2,0.1-0.4,0.2c-0.2,0-0.4,0-0.6-0.2c-0.5-0.2-0.7-0.5-0.7-0.8c0-0.1,0-0.4,0.1-0.7l2.5-7.5
					c0.1-0.2,0.2-0.4,0.3-0.5c0.2-0.1,0.3-0.2,0.5-0.2C51.4,16.7,51.7,16.9,52,17.3z M51.3,20.5l-0.6,1.8l1.5-0.1L51.3,20.5z"/>
			</g>
			<g>
				<path class="st19" d="M55.8,15.7l6.9,0.3c0.3,0,0.5,0.1,0.6,0.1c0.1,0.1,0.2,0.2,0.2,0.3c0,0.2,0,0.3,0,0.6c0,0.2,0,0.4-0.1,0.6
					c0,0.1-0.1,0.2-0.2,0.3C63.1,18,62.9,18,62.6,18l-2.4-0.1l-0.3,7c0,0.2,0,0.4,0,0.5c0,0.1-0.1,0.2-0.1,0.4S59.6,26,59.4,26
					s-0.4,0.1-0.6,0.1s-0.5,0-0.6-0.1c-0.2-0.1-0.3-0.2-0.3-0.3c-0.1-0.1-0.1-0.3-0.1-0.4c0-0.1,0-0.3,0-0.5l0.3-7l-2.4-0.1
					c-0.3,0-0.5-0.1-0.6-0.1s-0.2-0.2-0.2-0.3c0-0.2,0-0.3,0-0.6c0-0.2,0-0.4,0.1-0.6c0-0.1,0.1-0.2,0.2-0.3
					C55.3,15.7,55.5,15.6,55.8,15.7z"/>
			</g>
			<g>
				<path class="st19" d="M64.7,15.4l7.2,1.6c0.3,0.1,0.5,0.1,0.6,0.2c0.1,0.1,0.2,0.2,0.2,0.4s0,0.4-0.1,0.6
					c-0.1,0.3-0.1,0.5-0.2,0.6s-0.2,0.2-0.3,0.3c-0.2,0.1-0.4,0-0.7,0L69,18.6L67.4,26c0,0.2-0.1,0.4-0.1,0.5c0,0.1-0.1,0.2-0.2,0.3
					S66.8,27,66.6,27c-0.2,0-0.4,0-0.7-0.1c-0.3-0.1-0.5-0.1-0.6-0.2c-0.1-0.1-0.2-0.2-0.3-0.4c0-0.2,0-0.3,0-0.4
					c0-0.1,0-0.3,0.1-0.5l1.6-7.4l-2.5-0.6c-0.3-0.1-0.5-0.1-0.6-0.2s-0.2-0.2-0.2-0.4c0-0.2,0-0.4,0.1-0.6s0.1-0.5,0.2-0.6
					c0.1-0.1,0.2-0.2,0.3-0.3C64.2,15.4,64.4,15.4,64.7,15.4z"/>
			</g>
			<g>
				<path class="st19" d="M77.4,20.1c1.1,0.6,1.8,1.5,2.2,2.8c0.4,1.3,0.2,2.6-0.5,3.9c-0.7,1.3-1.6,2.2-2.9,2.8
					c-1.2,0.5-2.4,0.5-3.6-0.1c-1.1-0.6-1.8-1.5-2.2-2.8c-0.3-1.3-0.2-2.6,0.5-3.9c0.4-0.7,0.8-1.3,1.3-1.8c0.5-0.5,1.1-0.8,1.7-1.1
					s1.2-0.3,1.8-0.3C76.4,19.7,76.9,19.8,77.4,20.1z M73,23.8c-0.4,0.7-0.5,1.4-0.3,2.1c0.2,0.7,0.5,1.2,1.1,1.4
					c0.5,0.3,1.1,0.3,1.8,0.1c0.7-0.2,1.2-0.7,1.6-1.5c0.4-0.8,0.5-1.5,0.3-2.1c-0.2-0.7-0.6-1.1-1.1-1.4c-0.5-0.3-1.1-0.3-1.8,0
					C73.9,22.5,73.4,23,73,23.8z"/>
			</g>
			<g>
				<path class="st19" d="M84.2,26.7c0.8,0.7,1.1,1.7,1.1,2.8c0,1.2-0.5,2.2-1.4,3.1c-0.9,0.9-1.9,1.4-3.1,1.5s-2.1-0.2-2.9-1
					c-0.8-0.8-1.1-1.7-1-2.9s0.5-2.2,1.4-3c0.5-0.5,1-0.8,1.5-1.1c0.6-0.3,1.1-0.4,1.6-0.4s1,0,1.5,0.2S83.9,26.4,84.2,26.7z
					 M79.7,28.6c-0.5,0.5-0.8,1.1-0.8,1.7c0,0.6,0.2,1.1,0.5,1.4s0.8,0.5,1.4,0.5c0.6,0,1.1-0.3,1.7-0.8c0.5-0.5,0.8-1.1,0.8-1.7
					c0-0.6-0.2-1.1-0.5-1.4c-0.4-0.4-0.8-0.5-1.4-0.5S80.2,28.1,79.7,28.6z"/>
			</g>
			<g>
				<path class="st19" d="M80.9,34.3c0.1-0.3,0.3-0.5,0.5-0.6c0.2-0.1,0.5-0.1,0.9,0c0.3,0.1,0.4,0.2,0.5,0.3c0.1,0.2,0.1,0.5-0.1,1
					c-0.1,0.2-0.1,0.3-0.1,0.6s0,0.4,0.1,0.5c0.3,0.6,0.8,0.7,1.3,0.4c0.2-0.1,0.2-0.3,0.3-0.5c0-0.2,0-0.5-0.1-0.7
					c-0.1-0.3-0.2-0.6-0.2-0.9c-0.1-0.3-0.1-0.7-0.1-1s0.1-0.6,0.3-1c0.2-0.3,0.5-0.6,1-0.9c0.6-0.4,1.3-0.5,1.9-0.3
					c0.7,0.1,1.2,0.5,1.7,1.2c0.2,0.4,0.4,0.7,0.4,1.1c0.1,0.4,0.1,0.6,0,0.8l-0.1,0.3c-0.1,0.3-0.2,0.5-0.3,0.6s-0.4,0.1-0.7,0.1
					c-0.5,0-0.8-0.1-0.9-0.3c-0.1-0.1-0.1-0.3-0.1-0.6c0,0,0-0.1,0-0.2c0-0.1,0-0.2,0-0.2c0-0.2,0-0.4-0.2-0.6
					c-0.1-0.2-0.3-0.3-0.5-0.4c-0.2-0.1-0.4,0-0.6,0.1c-0.2,0.1-0.3,0.3-0.3,0.5c0,0.2,0,0.5,0.1,0.7c0.1,0.3,0.2,0.5,0.3,0.9
					c0.1,0.3,0.1,0.6,0.1,0.9c0,0.3-0.1,0.6-0.3,1c-0.2,0.3-0.5,0.6-1,0.9c-0.4,0.3-0.9,0.4-1.3,0.5c-0.4,0-0.8,0-1.2-0.2
					c-0.7-0.3-1.2-0.7-1.5-1.3c-0.2-0.3-0.3-0.6-0.4-0.9c-0.1-0.3-0.1-0.6-0.1-0.8c0-0.5,0.1-0.8,0.2-1.1L80.9,34.3z"/>
			</g>
		</g>
		<g class="st11">
			<path class="st19" d="M20.2,58.3c-0.2,0.1-0.3,0.1-0.4,0.1c-0.1,0-0.3-0.1-0.4-0.4c-0.1-0.1-0.1-0.3-0.1-0.4
				c0-0.1,0.2-0.3,0.4-0.5c0.1-0.1,0.2-0.1,0.3-0.2c0.1-0.1,0.1-0.2,0.2-0.3c0.1-0.4-0.1-0.7-0.4-0.7c-0.1,0-0.2,0-0.3,0.1
				c-0.1,0.1-0.2,0.2-0.2,0.4c-0.1,0.2-0.1,0.4-0.2,0.5c-0.1,0.2-0.2,0.4-0.3,0.5c-0.1,0.2-0.3,0.3-0.5,0.4C17.9,58,17.6,58,17.3,58
				c-0.4-0.1-0.7-0.3-1-0.6C16.1,57,16,56.6,16,56c0-0.3,0.1-0.5,0.2-0.7c0.1-0.2,0.2-0.4,0.3-0.4l0.2-0.2c0.2-0.1,0.3-0.2,0.4-0.2
				c0.1,0,0.2,0.1,0.4,0.2c0.2,0.2,0.3,0.4,0.3,0.5c0,0.1-0.1,0.2-0.2,0.3c0,0,0,0-0.1,0.1c0,0-0.1,0.1-0.1,0.1
				c-0.1,0.1-0.1,0.2-0.1,0.4c0,0.2,0,0.3,0.1,0.4c0.1,0.1,0.1,0.2,0.3,0.2c0.1,0,0.2,0,0.3-0.1c0.1-0.1,0.2-0.2,0.2-0.4
				c0.1-0.2,0.1-0.4,0.2-0.6s0.2-0.4,0.3-0.5s0.3-0.3,0.5-0.4c0.2-0.1,0.5-0.1,0.8-0.1c0.3,0,0.6,0.1,0.8,0.3
				c0.2,0.2,0.4,0.3,0.5,0.5c0.2,0.4,0.3,0.8,0.2,1.3c0,0.2-0.1,0.4-0.2,0.6c-0.1,0.2-0.2,0.3-0.3,0.4C20.7,58,20.5,58.2,20.2,58.3
				L20.2,58.3z"/>
			<path class="st19" d="M20.9,50.7l-0.1-0.2c-0.1-0.2-0.1-0.3-0.1-0.4c0-0.2,0.2-0.3,0.6-0.4c0.2-0.1,0.4-0.1,0.5-0.1
				c0.1,0,0.2,0.1,0.2,0.2c0.1,0.1,0.1,0.2,0.1,0.3c0,0.1,0.1,0.2,0.1,0.3c0,0.1,0.1,0.3,0.1,0.6c0,0.3,0,0.5-0.1,0.8
				c-0.1,0.2-0.2,0.5-0.3,0.7c-0.1,0.2-0.3,0.5-0.5,0.7c-0.2,0.2-0.5,0.4-0.7,0.6c-0.3,0.2-0.6,0.3-1,0.3s-0.8,0-1.2-0.1
				c-0.4-0.1-0.8-0.3-1.1-0.5c-0.3-0.2-0.5-0.5-0.7-0.7s-0.3-0.5-0.4-0.8c-0.2-0.6-0.2-1.1-0.1-1.6c0.1-0.2,0.2-0.5,0.3-0.7
				s0.3-0.4,0.4-0.5l0.2-0.2c0.1-0.1,0.1-0.1,0.2-0.2c0.1-0.1,0.3-0.1,0.4-0.1c0.1,0,0.3,0.1,0.4,0.3c0.2,0.3,0.3,0.5,0.3,0.6
				c0,0.1-0.1,0.2-0.3,0.4c-0.2,0.2-0.4,0.4-0.5,0.8c-0.1,0.3,0,0.7,0.1,1.1c0.1,0.2,0.2,0.4,0.4,0.5s0.4,0.3,0.7,0.3s0.5,0.1,0.7,0
				c0.2-0.1,0.4-0.1,0.6-0.3c0.3-0.3,0.5-0.6,0.6-0.9c0-0.2,0.1-0.3,0-0.5C20.9,50.8,20.9,50.7,20.9,50.7z"/>
			<path class="st19" d="M18.4,43.8l5.6-0.5c0.2,0,0.4,0,0.5,0c0.2,0.1,0.3,0.3,0.4,0.7c0,0.2,0,0.4,0,0.5c0,0.1-0.1,0.2-0.2,0.2
				c-0.1,0.1-0.1,0.1-0.2,0.1c-0.1,0-0.2,0-0.3,0L22.9,45l-0.9,2.3l0.7,0.8c0.1,0.1,0.2,0.2,0.2,0.2c0,0,0.1,0.1,0.1,0.2
				c0,0.1,0,0.2,0,0.3c0,0.1-0.1,0.2-0.3,0.4c-0.3,0.3-0.5,0.4-0.7,0.3c-0.1,0-0.2-0.1-0.4-0.3l-3.8-4.1c-0.1-0.1-0.2-0.2-0.2-0.4
				c0-0.2,0-0.3,0-0.4C17.8,44,18,43.8,18.4,43.8z M20.1,45.2l0.9,1l0.4-1.1L20.1,45.2z"/>
			<path class="st19" d="M21.8,36.5c-0.1-0.1-0.1-0.2,0-0.3s0.1-0.2,0.2-0.4c0.1-0.1,0.2-0.3,0.3-0.3c0.1-0.1,0.2-0.1,0.2-0.1
				c0.1,0,0.1,0,0.2,0c0.1,0,0.2,0.1,0.4,0.2l4.3,2.6c0.1,0.1,0.2,0.1,0.3,0.2c0.1,0,0.1,0.1,0.2,0.2c0.1,0.2,0,0.4-0.2,0.7
				c-0.1,0.2-0.2,0.3-0.3,0.4s-0.2,0.1-0.3,0.1c-2.2,0.2-3.7,0.4-4.4,0.5l2.5,1.5c0.1,0.1,0.2,0.1,0.3,0.2s0.1,0.1,0.2,0.2
				c0.1,0.2,0,0.4-0.2,0.7c-0.2,0.3-0.4,0.5-0.6,0.5c-0.1,0-0.2,0-0.3-0.1s-0.2-0.1-0.3-0.1l-4.3-2.6c-0.2-0.1-0.3-0.2-0.4-0.3
				c-0.1-0.1-0.1-0.2,0-0.3c0-0.1,0.1-0.3,0.2-0.4s0.2-0.3,0.3-0.3s0.2-0.1,0.2-0.1c0,0,0.1,0,0.3-0.1c2.1-0.2,3.5-0.3,4.2-0.4
				l-2.6-1.6C22,36.7,21.9,36.6,21.8,36.5z"/>
			<path class="st19" d="M31.1,25.7c0.1,0,0.2,0.1,0.2,0.1c0.1,0.1,0.1,0.1,0.2,0.3l3.6,4.2c0.3,0.3,0.4,0.6,0.2,0.9
				c-0.1,0.1-0.2,0.2-0.3,0.4c-0.1,0.1-0.3,0.2-0.4,0.3c-0.1,0-0.2,0.1-0.3,0.1c-0.1,0-0.2,0-0.2-0.1c-0.1-0.1-0.2-0.2-0.4-0.4
				l-2.2-2.5c0,0.3,0,0.7,0.1,1.2c0,0.6,0.1,0.9,0.1,1c0,0.1,0,0.2,0,0.3c0,0.1,0,0.2-0.1,0.3c0,0.1-0.1,0.3-0.2,0.4
				c-0.1,0.1-0.2,0.2-0.4,0.2c-0.1,0-0.3,0-0.3,0l-0.1,0c-0.2,0-0.6-0.1-1.3-0.3c-0.7-0.2-1-0.2-1.1-0.2l2.2,2.6
				c0.1,0.1,0.2,0.2,0.2,0.3c0,0.1,0.1,0.1,0.1,0.3c0,0.2-0.1,0.4-0.4,0.7c-0.3,0.3-0.6,0.4-0.8,0.3c-0.1,0-0.2-0.1-0.2-0.1
				c-0.1-0.1-0.1-0.1-0.2-0.3l-3.6-4.2c-0.1-0.1-0.2-0.2-0.2-0.3c0-0.1-0.1-0.2-0.1-0.3c0-0.2,0.1-0.4,0.4-0.7
				c0.1-0.1,0.3-0.2,0.4-0.3s0.2-0.1,0.3-0.1l0.1,0l3.7,0.8c-0.1-1.9-0.2-3.1-0.2-3.7c0-0.2,0.1-0.5,0.4-0.7S30.9,25.6,31.1,25.7z"
				/>
			<path class="st19" d="M37.4,21.4c0.4,0.1,0.7,0.2,0.8,0.4c0.1,0.1,0.1,0.3,0,0.6l-0.5,4.2l1,1.9c0.1,0.2,0.1,0.3,0.2,0.3
				s0,0.2,0,0.3c0,0.1-0.1,0.2-0.2,0.3c-0.1,0.1-0.3,0.2-0.5,0.3C38.1,30,37.9,30,37.8,30c-0.1,0-0.3,0-0.4-0.1s-0.2-0.1-0.2-0.2
				c0-0.1-0.1-0.2-0.2-0.3L36,27.6l-3.7-2.1c-0.3-0.1-0.4-0.3-0.5-0.4c-0.1-0.2-0.1-0.5,0.1-0.8c0.2-0.3,0.3-0.5,0.5-0.6
				s0.2-0.1,0.3-0.1c0.1,0,0.3,0.1,0.6,0.2l2.8,1.7l0.3-3.2c0-0.3,0.1-0.4,0.1-0.6s0.2-0.2,0.3-0.3C36.8,21.4,37.1,21.4,37.4,21.4z"
				/>
			<g>
				<path class="st19" d="M40.5,19.3l5.8-1.4c0.2-0.1,0.4-0.1,0.5,0c0.1,0,0.2,0.1,0.3,0.2c0.1,0.1,0.1,0.3,0.2,0.5s0.1,0.4,0.1,0.5
					c0,0.1,0,0.2-0.1,0.3c-0.1,0.1-0.3,0.2-0.5,0.2l-2,0.5l1.4,5.9c0,0.2,0.1,0.3,0.1,0.4c0,0.1,0,0.2,0,0.3s-0.1,0.2-0.2,0.3
					c-0.1,0.1-0.3,0.1-0.5,0.2s-0.4,0.1-0.5,0.1c-0.1,0-0.2-0.1-0.3-0.2c-0.1-0.1-0.1-0.2-0.2-0.3s-0.1-0.2-0.1-0.4l-1.4-5.9l-2,0.5
					c-0.2,0.1-0.4,0.1-0.5,0s-0.2-0.1-0.3-0.2c-0.1-0.1-0.1-0.3-0.2-0.5c0-0.2-0.1-0.4-0.1-0.5c0-0.1,0-0.2,0.1-0.3
					C40.1,19.5,40.3,19.4,40.5,19.3z"/>
			</g>
			<g>
				<path class="st19" d="M52,17.3l3.7,7c0.2,0.3,0.2,0.5,0.2,0.6c0,0.3-0.2,0.6-0.6,0.9c-0.2,0.2-0.4,0.3-0.6,0.3
					c-0.1,0-0.3,0-0.4-0.1c-0.1-0.1-0.2-0.1-0.2-0.2c0-0.1-0.1-0.2-0.2-0.4L53.2,24L50,24.3l-0.5,1.4c-0.1,0.2-0.1,0.3-0.1,0.4
					c0,0.1-0.1,0.2-0.2,0.3c-0.1,0.1-0.2,0.1-0.4,0.2c-0.2,0-0.4,0-0.6-0.2c-0.5-0.2-0.7-0.5-0.7-0.8c0-0.1,0-0.4,0.1-0.7l2.5-7.5
					c0.1-0.2,0.2-0.4,0.3-0.5c0.2-0.1,0.3-0.2,0.5-0.2C51.4,16.7,51.7,16.9,52,17.3z M51.3,20.5l-0.6,1.8l1.5-0.1L51.3,20.5z"/>
			</g>
			<g>
				<path class="st19" d="M55.8,15.7l6.9,0.3c0.3,0,0.5,0.1,0.6,0.1c0.1,0.1,0.2,0.2,0.2,0.3c0,0.2,0,0.3,0,0.6c0,0.2,0,0.4-0.1,0.6
					c0,0.1-0.1,0.2-0.2,0.3C63.1,18,62.9,18,62.6,18l-2.4-0.1l-0.3,7c0,0.2,0,0.4,0,0.5c0,0.1-0.1,0.2-0.1,0.4S59.6,26,59.4,26
					s-0.4,0.1-0.6,0.1s-0.5,0-0.6-0.1c-0.2-0.1-0.3-0.2-0.3-0.3c-0.1-0.1-0.1-0.3-0.1-0.4c0-0.1,0-0.3,0-0.5l0.3-7l-2.4-0.1
					c-0.3,0-0.5-0.1-0.6-0.1s-0.2-0.2-0.2-0.3c0-0.2,0-0.3,0-0.6c0-0.2,0-0.4,0.1-0.6c0-0.1,0.1-0.2,0.2-0.3
					C55.3,15.7,55.5,15.6,55.8,15.7z"/>
			</g>
			<g>
				<path class="st19" d="M64.7,15.4l7.2,1.6c0.3,0.1,0.5,0.1,0.6,0.2c0.1,0.1,0.2,0.2,0.2,0.4s0,0.4-0.1,0.6
					c-0.1,0.3-0.1,0.5-0.2,0.6s-0.2,0.2-0.3,0.3c-0.2,0.1-0.4,0-0.7,0L69,18.6L67.4,26c0,0.2-0.1,0.4-0.1,0.5c0,0.1-0.1,0.2-0.2,0.3
					S66.8,27,66.6,27c-0.2,0-0.4,0-0.7-0.1c-0.3-0.1-0.5-0.1-0.6-0.2c-0.1-0.1-0.2-0.2-0.3-0.4c0-0.2,0-0.3,0-0.4
					c0-0.1,0-0.3,0.1-0.5l1.6-7.4l-2.5-0.6c-0.3-0.1-0.5-0.1-0.6-0.2s-0.2-0.2-0.2-0.4c0-0.2,0-0.4,0.1-0.6s0.1-0.5,0.2-0.6
					c0.1-0.1,0.2-0.2,0.3-0.3C64.2,15.4,64.4,15.4,64.7,15.4z"/>
			</g>
			<g>
				<path class="st19" d="M77.4,20.1c1.1,0.6,1.8,1.5,2.2,2.8c0.4,1.3,0.2,2.6-0.5,3.9c-0.7,1.3-1.6,2.2-2.9,2.8
					c-1.2,0.5-2.4,0.5-3.6-0.1c-1.1-0.6-1.8-1.5-2.2-2.8c-0.3-1.3-0.2-2.6,0.5-3.9c0.4-0.7,0.8-1.3,1.3-1.8c0.5-0.5,1.1-0.8,1.7-1.1
					s1.2-0.3,1.8-0.3C76.4,19.7,76.9,19.8,77.4,20.1z M73,23.8c-0.4,0.7-0.5,1.4-0.3,2.1c0.2,0.7,0.5,1.2,1.1,1.4
					c0.5,0.3,1.1,0.3,1.8,0.1c0.7-0.2,1.2-0.7,1.6-1.5c0.4-0.8,0.5-1.5,0.3-2.1c-0.2-0.7-0.6-1.1-1.1-1.4c-0.5-0.3-1.1-0.3-1.8,0
					C73.9,22.5,73.4,23,73,23.8z"/>
			</g>
			<g>
				<path class="st19" d="M84.2,26.7c0.8,0.7,1.1,1.7,1.1,2.8c0,1.2-0.5,2.2-1.4,3.1c-0.9,0.9-1.9,1.4-3.1,1.5s-2.1-0.2-2.9-1
					c-0.8-0.8-1.1-1.7-1-2.9s0.5-2.2,1.4-3c0.5-0.5,1-0.8,1.5-1.1c0.6-0.3,1.1-0.4,1.6-0.4s1,0,1.5,0.2S83.9,26.4,84.2,26.7z
					 M79.7,28.6c-0.5,0.5-0.8,1.1-0.8,1.7c0,0.6,0.2,1.1,0.5,1.4s0.8,0.5,1.4,0.5c0.6,0,1.1-0.3,1.7-0.8c0.5-0.5,0.8-1.1,0.8-1.7
					c0-0.6-0.2-1.1-0.5-1.4c-0.4-0.4-0.8-0.5-1.4-0.5S80.2,28.1,79.7,28.6z"/>
			</g>
			<g>
				<path class="st19" d="M80.9,34.3c0.1-0.3,0.3-0.5,0.5-0.6c0.2-0.1,0.5-0.1,0.9,0c0.3,0.1,0.4,0.2,0.5,0.3c0.1,0.2,0.1,0.5-0.1,1
					c-0.1,0.2-0.1,0.3-0.1,0.6s0,0.4,0.1,0.5c0.3,0.6,0.8,0.7,1.3,0.4c0.2-0.1,0.2-0.3,0.3-0.5c0-0.2,0-0.5-0.1-0.7
					c-0.1-0.3-0.2-0.6-0.2-0.9c-0.1-0.3-0.1-0.7-0.1-1s0.1-0.6,0.3-1c0.2-0.3,0.5-0.6,1-0.9c0.6-0.4,1.3-0.5,1.9-0.3
					c0.7,0.1,1.2,0.5,1.7,1.2c0.2,0.4,0.4,0.7,0.4,1.1c0.1,0.4,0.1,0.6,0,0.8l-0.1,0.3c-0.1,0.3-0.2,0.5-0.3,0.6s-0.4,0.1-0.7,0.1
					c-0.5,0-0.8-0.1-0.9-0.3c-0.1-0.1-0.1-0.3-0.1-0.6c0,0,0-0.1,0-0.2c0-0.1,0-0.2,0-0.2c0-0.2,0-0.4-0.2-0.6
					c-0.1-0.2-0.3-0.3-0.5-0.4c-0.2-0.1-0.4,0-0.6,0.1c-0.2,0.1-0.3,0.3-0.3,0.5c0,0.2,0,0.5,0.1,0.7c0.1,0.3,0.2,0.5,0.3,0.9
					c0.1,0.3,0.1,0.6,0.1,0.9c0,0.3-0.1,0.6-0.3,1c-0.2,0.3-0.5,0.6-1,0.9c-0.4,0.3-0.9,0.4-1.3,0.5c-0.4,0-0.8,0-1.2-0.2
					c-0.7-0.3-1.2-0.7-1.5-1.3c-0.2-0.3-0.3-0.6-0.4-0.9c-0.1-0.3-0.1-0.6-0.1-0.8c0-0.5,0.1-0.8,0.2-1.1L80.9,34.3z"/>
			</g>
		</g>
	</g>
	<path class="st1" d="M63.2,56l0.2-0.3c0.1-0.1,0.2-0.3,0.4-0.3c0.3,0,0.6,0,0.9,0.1c0.6,0.2,1.1,0.7,1.2,1.2
		c0.2,0.5,0.4,0.9,0.8,1.2c0.4,0.3,0.9,0.4,1.2,0.3c0.2,0,0.2-0.1,0.4-0.3c0.1-0.2,0.3-0.5,0.6-0.7c0.3-0.3,0.8-0.4,1.1-0.3
		c0.4,0.1,0.7,0.2,1,0.4c0.5,0.4,0.7,0.9,1,1.3c0.3,0.4,0.7,0.7,1.2,0.7l0,0.1c-0.5,0.3-1.3,0.1-1.7-0.3c-0.5-0.4-0.8-0.8-1.2-1
		c-0.4-0.2-0.7-0.3-0.9-0.1c-0.1,0.1-0.3,0.3-0.5,0.5c-0.2,0.2-0.5,0.5-0.9,0.6c-0.7,0.1-1.3-0.2-1.8-0.6c-0.5-0.4-0.8-1-0.9-1.5
		c-0.1-0.5-0.4-0.9-0.9-1.1c-0.2-0.1-0.5-0.2-0.7-0.2C63.6,55.6,63.5,55.8,63.2,56L63.2,56z"/>
	<path class="st19" d="M46.4,50.1"/>
</g>
<g id="Ebene_1" shape-rendering="auto">
	<path class="st23" d="M73.3,287.1v-1.4c0-0.8-0.6-1.4-1.4-1.4s-1.4,0.6-1.4,1.4l0,0v1.4H73.3z"/>
	<path class="st23" d="M84.7,285.7c0,0.8,0.6,1.4,1.4,1.4l0,0c0.8,0,1.4-0.6,1.4-1.4s-0.6-1.4-1.4-1.4l0,0
		C85.3,284.3,84.7,284.9,84.7,285.7z"/>
	<path class="st23" d="M93.2,285.7c0,0.8,0.6,1.4,1.4,1.4l0,0c0.8,0,1.4-0.6,1.4-1.4s-0.6-1.4-1.4-1.4l0,0
		C93.9,284.3,93.2,284.9,93.2,285.7z"/>
	<path class="st23" d="M104.6,285.7c0,0.8,0.6,1.4,1.4,1.4l0,0c0.8,0,1.4-0.6,1.4-1.4s-0.6-1.4-1.4-1.4l0,0
		C105.3,284.3,104.6,284.9,104.6,285.7z"/>
	<rect x="70.4" y="287.1" class="st23" width="2.9" height="2.9"/>
	<path class="st23" d="M73.3,288.6v1.4h1.4C73.9,290,73.3,289.3,73.3,288.6z"/>
	<path class="st23" d="M79,288.6v1.4h2.8v-2.9h-1.4C79.6,287.1,79,287.8,79,288.6z"/>
	<path class="st23" d="M84.7,288.6v1.4h-2.8v-2.9h1.4C84,287.1,84.7,287.8,84.7,288.6z"/>
	<path class="st23" d="M84.7,288.6v1.4h1.4C85.3,290,84.7,289.3,84.7,288.6z"/>
	<path class="st23" d="M90.4,287.1h-1.4c-0.8,0-1.4,0.6-1.4,1.4c0,0.8,0.6,1.4,1.4,1.4h1.4V287.1z"/>
	<path class="st23" d="M90.4,290h1.4c0.8,0,1.4-0.6,1.4-1.4c0-0.8-0.6-1.4-1.4-1.4h-1.4V290z"/>
	<path class="st23" d="M96.1,288.6c0,0.8,0.6,1.4,1.4,1.4l0,0c0.8,0,1.4-0.6,1.4-1.4c0-0.8-0.6-1.4-1.4-1.4l0,0
		C96.7,287.1,96.1,287.8,96.1,288.6z"/>
	<path class="st23" d="M71.8,292.8h1.4V290h-2.9v1.4C70.4,292.2,71.1,292.8,71.8,292.8z"/>
	<path class="st23" d="M73.3,292.8h1.4c0.8,0,1.4-0.6,1.4-1.4c0-0.8-0.6-1.4-1.4-1.4h-1.4V292.8z"/>
	<path class="st23" d="M77.5,292.8H79v-1.4C79,292.2,78.3,292.8,77.5,292.8z"/>
	<rect x="79" y="290" class="st23" width="2.9" height="2.9"/>
	<rect x="81.8" y="290" class="st23" width="2.9" height="2.9"/>
	<path class="st23" d="M87.5,291.4v1.4h-2.9V290h1.4C86.9,290,87.5,290.6,87.5,291.4z"/>
	<path class="st23" d="M87.5,291.4v1.4h1.4C88.2,292.8,87.5,292.2,87.5,291.4z"/>
	<path class="st23" d="M93.2,291.4c0,0.8,0.6,1.4,1.4,1.4l0,0c0.8,0,1.4-0.6,1.4-1.4c0-0.8-0.6-1.4-1.4-1.4l0,0
		C93.9,290,93.2,290.6,93.2,291.4z"/>
	<path class="st23" d="M104.6,290h-1.4c-0.8,0-1.4,0.6-1.4,1.4c0,0.8,0.6,1.4,1.4,1.4h1.4V290z"/>
	<path class="st23" d="M107.5,291.4v1.4h-2.8V290h1.4C106.8,290,107.5,290.6,107.5,291.4z"/>
	<path class="st23" d="M74.7,295.7h1.4v-1.4C76.1,295,75.5,295.7,74.7,295.7z"/>
	<path class="st23" d="M76.1,294.3v1.4H79v-2.9h-1.4C76.8,292.8,76.1,293.5,76.1,294.3z"/>
	<path class="st23" d="M80.4,295.7H79v-2.9h2.8v1.4C81.8,295,81.2,295.7,80.4,295.7z"/>
	<path class="st23" d="M81.8,294.3v-1.4h1.4C82.5,292.8,81.8,293.5,81.8,294.3z"/>
	<path class="st23" d="M84.7,294.3v-1.4h-1.4C84,292.8,84.7,293.5,84.7,294.3z"/>
	<path class="st23" d="M86.1,295.7h1.4v-2.9h-2.9v1.4C84.7,295,85.3,295.7,86.1,295.7z"/>
	<rect x="87.5" y="292.8" class="st23" width="2.9" height="2.9"/>
	<path class="st23" d="M90.4,295.7h1.4c0.8,0,1.4-0.6,1.4-1.4c0-0.8-0.6-1.4-1.4-1.4h-1.4V295.7z"/>
	<path class="st23" d="M98.9,292.8h-1.4c-0.8,0-1.4,0.6-1.4,1.4c0,0.8,0.6,1.4,1.4,1.4h1.4V292.8z"/>
	<path class="st23" d="M101.8,294.3v1.4h-2.8v-2.9h1.4C101.1,292.8,101.8,293.5,101.8,294.3z"/>
	<path class="st23" d="M104.6,294.3v-1.4h-1.4C104,292.8,104.6,293.5,104.6,294.3z"/>
	<path class="st23" d="M104.6,292.8v1.4c0,0.8,0.6,1.4,1.4,1.4c0.8,0,1.4-0.6,1.4-1.4l0,0v-1.4H104.6z"/>
	<path class="st23" d="M76.1,295.7h-1.4c-0.8,0-1.4,0.6-1.4,1.4c0,0.8,0.6,1.4,1.4,1.4h1.4V295.7z"/>
	<path class="st23" d="M77.5,298.5h-1.4v-2.9H79v1.4C79,297.9,78.3,298.5,77.5,298.5z"/>
	<path class="st23" d="M79,297.1v-1.4h1.4C79.6,295.7,79,296.3,79,297.1z"/>
	<path class="st23" d="M84.7,298.5v-1.4c0-0.8-0.6-1.4-1.4-1.4c-0.8,0-1.4,0.6-1.4,1.4l0,0v1.4H84.7z"/>
	<path class="st23" d="M98.9,297.1v-1.4h-1.4C98.3,295.7,98.9,296.3,98.9,297.1z"/>
	<rect x="98.9" y="295.7" class="st23" width="2.9" height="2.9"/>
	<path class="st23" d="M73.3,301.4V300c0-0.8-0.6-1.4-1.4-1.4s-1.4,0.6-1.4,1.4l0,0v1.4H73.3z"/>
	<rect x="81.8" y="298.5" class="st23" width="2.9" height="2.9"/>
	<path class="st23" d="M87.5,300v1.4h2.8v-2.8h-1.4C88.2,298.5,87.5,299.2,87.5,300z"/>
	<path class="st23" d="M90.4,301.4h1.4c0.8,0,1.4-0.6,1.4-1.4s-0.6-1.4-1.4-1.4h-1.4V301.4z"/>
	<rect x="98.9" y="298.5" class="st23" width="2.9" height="2.9"/>
	<path class="st23" d="M107.5,301.4V300c0-0.8-0.6-1.4-1.4-1.4c-0.8,0-1.4,0.6-1.4,1.4l0,0v1.4H107.5z"/>
	<rect x="70.4" y="301.4" class="st23" width="2.9" height="2.9"/>
	<path class="st23" d="M76.1,302.8c0,0.8,0.6,1.4,1.4,1.4l0,0c0.8,0,1.4-0.6,1.4-1.4c0-0.8-0.6-1.4-1.4-1.4l0,0
		C76.8,301.4,76.1,302,76.1,302.8z"/>
	<path class="st23" d="M81.8,301.4v1.4c0,0.8,0.6,1.4,1.4,1.4c0.8,0,1.4-0.6,1.4-1.4l0,0v-1.4H81.8z"/>
	<path class="st23" d="M87.5,301.4v1.4c0,0.8,0.6,1.4,1.4,1.4c0.8,0,1.4-0.6,1.4-1.4l0,0v-1.4H87.5z"/>
	<path class="st23" d="M90.4,302.8v-1.4h1.4C91,301.4,90.4,302,90.4,302.8z"/>
	<path class="st23" d="M91.8,304.2h1.4v-1.4C93.2,303.6,92.6,304.2,91.8,304.2z"/>
	<path class="st23" d="M96.1,304.2v-1.4c0-0.8-0.6-1.4-1.4-1.4c-0.8,0-1.4,0.6-1.4,1.4l0,0v1.4H96.1z"/>
	<rect x="98.9" y="301.4" class="st23" width="2.9" height="2.9"/>
	<path class="st23" d="M103.2,304.2h1.4v-1.4C104.6,303.6,104,304.2,103.2,304.2z"/>
	<path class="st23" d="M101.8,302.8v1.4h1.4C102.4,304.2,101.8,303.6,101.8,302.8z"/>
	<rect x="104.6" y="301.4" class="st23" width="2.9" height="2.9"/>
	<rect x="70.4" y="304.2" class="st23" width="2.9" height="2.9"/>
	<path class="st23" d="M93.2,304.2h-1.4c-0.8,0-1.4,0.6-1.4,1.4c0,0.8,0.6,1.4,1.4,1.4h1.4V304.2z"/>
	<rect x="93.2" y="304.2" class="st23" width="2.9" height="2.9"/>
	<rect x="98.9" y="304.2" class="st23" width="2.9" height="2.9"/>
	<rect x="101.8" y="304.2" class="st23" width="2.9" height="2.9"/>
	<rect x="104.6" y="304.2" class="st23" width="2.9" height="2.9"/>
	<path class="st23" d="M107.5,305.7v1.4h1.4C108.1,307.1,107.5,306.4,107.5,305.7z"/>
	<path class="st23" d="M56.2,307.1h-1.4c-0.8,0-1.4,0.6-1.4,1.4c0,0.8,0.6,1.4,1.4,1.4h1.4V307.1z"/>
	<rect x="56.2" y="307.1" class="st23" width="2.9" height="2.9"/>
	<path class="st23" d="M61.9,308.5v1.4H59v-2.9h1.4C61.2,307.1,61.9,307.7,61.9,308.5z"/>
	<path class="st23" d="M61.9,308.5v1.4h1.4C62.5,309.9,61.9,309.3,61.9,308.5z"/>
	<path class="st23" d="M64.7,308.5c0,0.8,0.6,1.4,1.4,1.4l0,0c0.8,0,1.4-0.6,1.4-1.4c0-0.8-0.6-1.4-1.4-1.4l0,0
		C65.4,307.1,64.7,307.7,64.7,308.5z"/>
	<rect x="70.4" y="307.1" class="st23" width="2.9" height="2.9"/>
	<path class="st23" d="M79,307.1h-1.4c-0.8,0-1.4,0.6-1.4,1.4c0,0.8,0.6,1.4,1.4,1.4H79V307.1z"/>
	<path class="st23" d="M79,309.9h1.4c0.8,0,1.4-0.6,1.4-1.4c0-0.8-0.6-1.4-1.4-1.4H79V309.9z"/>
	<path class="st23" d="M93.2,308.5v-1.4h-1.4C92.6,307.1,93.2,307.7,93.2,308.5z"/>
	<path class="st23" d="M93.2,307.1v1.4c0,0.8,0.6,1.4,1.4,1.4c0.8,0,1.4-0.6,1.4-1.4l0,0v-1.4H93.2z"/>
	<path class="st23" d="M98.9,307.1v1.4c0,0.8,0.6,1.4,1.4,1.4c0.8,0,1.4-0.6,1.4-1.4l0,0v-1.4H98.9z"/>
	<path class="st23" d="M101.8,308.5v-1.4h1.4C102.4,307.1,101.8,307.7,101.8,308.5z"/>
	<path class="st23" d="M104.6,308.5v-1.4h-1.4C104,307.1,104.6,307.7,104.6,308.5z"/>
	<path class="st23" d="M106,309.9h1.4v-2.9h-2.8v1.4C104.6,309.3,105.3,309.9,106,309.9z"/>
	<rect x="107.5" y="307.1" class="st23" width="2.9" height="2.9"/>
	<rect x="110.3" y="307.1" class="st23" width="2.9" height="2.9"/>
	<path class="st23" d="M113.2,309.9h1.4c0.8,0,1.4-0.6,1.4-1.4c0-0.8-0.6-1.4-1.4-1.4h-1.4V309.9z"/>
	<path class="st23" d="M124.6,307.1h-1.4c-0.8,0-1.4,0.6-1.4,1.4c0,0.8,0.6,1.4,1.4,1.4h1.4V307.1z"/>
	<rect x="124.6" y="307.1" class="st23" width="2.9" height="2.9"/>
	<path class="st23" d="M130.3,308.5v1.4h-2.8v-2.9h1.4C129.6,307.1,130.3,307.7,130.3,308.5z"/>
	<path class="st23" d="M47.6,311.4c0,0.8,0.6,1.4,1.4,1.4l0,0c0.8,0,1.4-0.6,1.4-1.4c0-0.8-0.6-1.4-1.4-1.4l0,0
		C48.3,309.9,47.6,310.6,47.6,311.4z"/>
	<path class="st23" d="M56.2,311.4v-1.4h-1.4C55.5,309.9,56.2,310.6,56.2,311.4z"/>
	<path class="st23" d="M57.6,312.8H59v-2.9h-2.8v1.4C56.2,312.1,56.8,312.8,57.6,312.8z"/>
	<rect x="59" y="309.9" class="st23" width="2.9" height="2.9"/>
	<path class="st23" d="M64.7,311.4v1.4h-2.8v-2.9h1.4C64.1,309.9,64.7,310.6,64.7,311.4z"/>
	<path class="st23" d="M64.7,311.4v1.4h1.4C65.4,312.8,64.7,312.1,64.7,311.4z"/>
	<path class="st23" d="M69,312.8h1.4v-1.4C70.4,312.1,69.8,312.8,69,312.8z"/>
	<rect x="70.4" y="309.9" class="st23" width="2.9" height="2.9"/>
	<path class="st23" d="M107.5,311.4v-1.4H106C106.8,309.9,107.5,310.6,107.5,311.4z"/>
	<path class="st23" d="M108.9,312.8h1.4v-2.9h-2.8v1.4C107.5,312.1,108.1,312.8,108.9,312.8z"/>
	<path class="st23" d="M111.7,312.8h-1.4v-2.9h2.9v1.4C113.2,312.1,112.5,312.8,111.7,312.8z"/>
	<path class="st23" d="M113.2,311.4v-1.4h1.4C113.8,309.9,113.2,310.6,113.2,311.4z"/>
	<path class="st23" d="M124.6,311.4v-1.4h-1.4C123.9,309.9,124.6,310.6,124.6,311.4z"/>
	<path class="st23" d="M126,312.8h1.4v-2.9h-2.9v1.4C124.6,312.1,125.2,312.8,126,312.8z"/>
	<path class="st23" d="M128.8,312.8h-1.4v-2.9h2.8v1.4C130.3,312.1,129.6,312.8,128.8,312.8z"/>
	<path class="st23" d="M50.5,314.2c0,0.8,0.6,1.4,1.4,1.4l0,0c0.8,0,1.4-0.6,1.4-1.4s-0.6-1.4-1.4-1.4l0,0
		C51.1,312.8,50.5,313.4,50.5,314.2z"/>
	<path class="st23" d="M59,314.2v-1.4h-1.4C58.4,312.8,59,313.4,59,314.2z"/>
	<rect x="59" y="312.8" class="st23" width="2.9" height="2.9"/>
	<rect x="61.9" y="312.8" class="st23" width="2.9" height="2.9"/>
	<rect x="64.7" y="312.8" class="st23" width="2.9" height="2.9"/>
	<rect x="67.6" y="312.8" class="st23" width="2.9" height="2.9"/>
	<rect x="70.4" y="312.8" class="st23" width="2.9" height="2.9"/>
	<path class="st23" d="M111.7,315.6h1.4v-1.4C113.2,315,112.5,315.6,111.7,315.6z"/>
	<path class="st23" d="M116,315.6v-1.4c0-0.8-0.6-1.4-1.4-1.4c-0.8,0-1.4,0.6-1.4,1.4l0,0v1.4H116z"/>
	<path class="st23" d="M116,314.2v1.4h1.4C116.7,315.6,116,315,116,314.2z"/>
	<path class="st23" d="M120.3,315.6h1.4v-1.4C121.7,315,121.1,315.6,120.3,315.6z"/>
	<path class="st23" d="M124.6,315.6v-1.4c0-0.8-0.6-1.4-1.4-1.4c-0.8,0-1.4,0.6-1.4,1.4l0,0v1.4H124.6z"/>
	<path class="st23" d="M60.4,318.5h1.4v-2.9H59v1.4C59,317.8,59.7,318.5,60.4,318.5z"/>
	<rect x="61.9" y="315.6" class="st23" width="2.9" height="2.9"/>
	<path class="st23" d="M64.7,317.1v-1.4h1.4C65.4,315.6,64.7,316.3,64.7,317.1z"/>
	<path class="st23" d="M64.7,317.1v1.4h1.4C65.4,318.5,64.7,317.8,64.7,317.1z"/>
	<path class="st23" d="M70.4,317.1v-1.4H69C69.8,315.6,70.4,316.3,70.4,317.1z"/>
	<path class="st23" d="M70.4,315.6v1.4c0,0.8,0.6,1.4,1.4,1.4s1.4-0.6,1.4-1.4l0,0v-1.4H70.4z"/>
	<path class="st23" d="M107.5,318.5v-1.4c0-0.8-0.6-1.4-1.4-1.4c-0.8,0-1.4,0.6-1.4,1.4l0,0v1.4H107.5z"/>
	<path class="st23" d="M107.5,317.1v1.4h1.4C108.1,318.5,107.5,317.8,107.5,317.1z"/>
	<path class="st23" d="M113.2,315.6h-1.4c-0.8,0-1.4,0.6-1.4,1.4c0,0.8,0.6,1.4,1.4,1.4h1.4V315.6z"/>
	<rect x="113.2" y="315.6" class="st23" width="2.9" height="2.9"/>
	<rect x="116" y="315.6" class="st23" width="2.9" height="2.9"/>
	<rect x="118.9" y="315.6" class="st23" width="2.9" height="2.9"/>
	<rect x="121.7" y="315.6" class="st23" width="2.9" height="2.9"/>
	<path class="st23" d="M124.6,317.1v1.4h1.4C125.2,318.5,124.6,317.8,124.6,317.1z"/>
	<path class="st23" d="M47.6,319.9v1.4h2.8v-2.9H49C48.3,318.5,47.6,319.1,47.6,319.9z"/>
	<path class="st23" d="M50.5,321.3h1.4c0.8,0,1.4-0.6,1.4-1.4c0-0.8-0.6-1.4-1.4-1.4h-1.4V321.3z"/>
	<path class="st23" d="M61.9,319.9v-1.4h-1.4C61.2,318.5,61.9,319.1,61.9,319.9z"/>
	<path class="st23" d="M63.3,321.3h1.4v-2.9h-2.8v1.4C61.9,320.7,62.5,321.3,63.3,321.3z"/>
	<rect x="64.7" y="318.5" class="st23" width="2.9" height="2.9"/>
	<path class="st23" d="M70.4,319.9v1.4h-2.8v-2.9H69C69.8,318.5,70.4,319.1,70.4,319.9z"/>
	<path class="st23" d="M70.4,319.9v1.4h1.4C71.1,321.3,70.4,320.7,70.4,319.9z"/>
	<rect x="104.6" y="318.5" class="st23" width="2.9" height="2.9"/>
	<path class="st23" d="M107.5,321.3h1.4c0.8,0,1.4-0.6,1.4-1.4c0-0.8-0.6-1.4-1.4-1.4h-1.4V321.3z"/>
	<path class="st23" d="M116,319.9v-1.4h-1.4C115.4,318.5,116,319.1,116,319.9z"/>
	<rect x="116" y="318.5" class="st23" width="2.9" height="2.9"/>
	<path class="st23" d="M118.9,319.9v-1.4h1.4C119.5,318.5,118.9,319.1,118.9,319.9z"/>
	<path class="st23" d="M121.7,319.9v-1.4h-1.4C121.1,318.5,121.7,319.1,121.7,319.9z"/>
	<path class="st23" d="M118.9,319.9v1.4h1.4C119.5,321.3,118.9,320.7,118.9,319.9z"/>
	<path class="st23" d="M123.1,321.3h1.4v-2.9h-2.8v1.4C121.7,320.7,122.4,321.3,123.1,321.3z"/>
	<path class="st23" d="M124.6,321.3h1.4c0.8,0,1.4-0.6,1.4-1.4c0-0.8-0.6-1.4-1.4-1.4h-1.4V321.3z"/>
	<rect x="47.6" y="321.3" class="st23" width="2.9" height="2.9"/>
	<path class="st23" d="M50.5,322.8v-1.4h1.4C51.1,321.3,50.5,322,50.5,322.8z"/>
	<path class="st23" d="M59,322.8c0,0.8,0.6,1.4,1.4,1.4l0,0c0.8,0,1.4-0.6,1.4-1.4c0-0.8-0.6-1.4-1.4-1.4l0,0
		C59.7,321.3,59,322,59,322.8z"/>
	<path class="st23" d="M67.6,322.8v-1.4h-1.4C66.9,321.3,67.6,322,67.6,322.8z"/>
	<path class="st23" d="M66.1,324.2h1.4v-1.4C67.6,323.5,66.9,324.2,66.1,324.2z"/>
	<rect x="67.6" y="321.3" class="st23" width="2.9" height="2.9"/>
	<path class="st23" d="M73.3,322.8v1.4h-2.9v-2.9h1.4C72.6,321.3,73.3,322,73.3,322.8z"/>
	<path class="st23" d="M104.6,321.3v1.4c0,0.8,0.6,1.4,1.4,1.4c0.8,0,1.4-0.6,1.4-1.4l0,0v-1.4H104.6z"/>
	<path class="st23" d="M107.5,322.8v-1.4h1.4C108.1,321.3,107.5,322,107.5,322.8z"/>
	<path class="st23" d="M110.3,322.8c0,0.8,0.6,1.4,1.4,1.4l0,0c0.8,0,1.4-0.6,1.4-1.4c0-0.8-0.6-1.4-1.4-1.4l0,0
		C111,321.3,110.3,322,110.3,322.8z"/>
	<path class="st23" d="M117.4,324.2h1.4v-2.9H116v1.4C116,323.5,116.7,324.2,117.4,324.2z"/>
	<path class="st23" d="M118.9,324.2h1.4c0.8,0,1.4-0.6,1.4-1.4c0-0.8-0.6-1.4-1.4-1.4h-1.4V324.2z"/>
	<path class="st23" d="M130.3,324.2v-1.4c0-0.8-0.6-1.4-1.4-1.4c-0.8,0-1.4,0.6-1.4,1.4l0,0v1.4H130.3z"/>
	<path class="st23" d="M47.6,324.2v1.4c0,0.8,0.6,1.4,1.4,1.4s1.4-0.6,1.4-1.4l0,0v-1.4H47.6z"/>
	<path class="st23" d="M56.2,325.6c0,0.8,0.6,1.4,1.4,1.4l0,0c0.8,0,1.4-0.6,1.4-1.4c0-0.8-0.6-1.4-1.4-1.4l0,0
		C56.8,324.2,56.2,324.8,56.2,325.6z"/>
	<path class="st23" d="M60.4,327h1.4v-1.4C61.9,326.4,61.2,327,60.4,327z"/>
	<path class="st23" d="M61.9,325.6v1.4h2.8v-2.9h-1.4C62.5,324.2,61.9,324.8,61.9,325.6z"/>
	<rect x="64.7" y="324.2" class="st23" width="2.9" height="2.9"/>
	<rect x="67.6" y="324.2" class="st23" width="2.9" height="2.9"/>
	<path class="st23" d="M71.8,327h-1.4v-2.9h2.9v1.4C73.3,326.4,72.6,327,71.8,327z"/>
	<path class="st23" d="M111.7,327h1.4v-1.4C113.2,326.4,112.5,327,111.7,327z"/>
	<path class="st23" d="M116,327v-1.4c0-0.8-0.6-1.4-1.4-1.4c-0.8,0-1.4,0.6-1.4,1.4l0,0v1.4H116z"/>
	<path class="st23" d="M116,325.6v1.4h1.4C116.7,327,116,326.4,116,325.6z"/>
	<path class="st23" d="M124.6,327v-1.4c0-0.8-0.6-1.4-1.4-1.4c-0.8,0-1.4,0.6-1.4,1.4l0,0v1.4H124.6z"/>
	<path class="st23" d="M126,327h1.4v-1.4C127.4,326.4,126.8,327,126,327z"/>
	<path class="st23" d="M124.6,325.6v1.4h1.4C125.2,327,124.6,326.4,124.6,325.6z"/>
	<rect x="127.4" y="324.2" class="st23" width="2.9" height="2.9"/>
	<path class="st23" d="M53.3,328.5c0,0.8,0.6,1.4,1.4,1.4l0,0c0.8,0,1.4-0.6,1.4-1.4s-0.6-1.4-1.4-1.4l0,0
		C54,327,53.3,327.7,53.3,328.5z"/>
	<path class="st23" d="M59,328.5v1.4h2.9V327h-1.4C59.7,327,59,327.7,59,328.5z"/>
	<path class="st23" d="M63.3,329.9h-1.4V327h2.8v1.4C64.7,329.2,64.1,329.9,63.3,329.9z"/>
	<path class="st23" d="M64.7,328.5V327h1.4C65.4,327,64.7,327.7,64.7,328.5z"/>
	<path class="st23" d="M67.6,328.5V327h-1.4C66.9,327,67.6,327.7,67.6,328.5z"/>
	<path class="st23" d="M66.1,329.9h1.4v-1.4C67.6,329.2,66.9,329.9,66.1,329.9z"/>
	<rect x="67.6" y="327" class="st23" width="2.9" height="2.9"/>
	<path class="st23" d="M70.4,328.5V327h1.4C71.1,327,70.4,327.7,70.4,328.5z"/>
	<path class="st23" d="M110.3,327h-1.4c-0.8,0-1.4,0.6-1.4,1.4s0.6,1.4,1.4,1.4h1.4V327z"/>
	<rect x="110.3" y="327" class="st23" width="2.9" height="2.9"/>
	<rect x="113.2" y="327" class="st23" width="2.9" height="2.9"/>
	<path class="st23" d="M116,329.9h1.4c0.8,0,1.4-0.6,1.4-1.4s-0.6-1.4-1.4-1.4H116V329.9z"/>
	<path class="st23" d="M123.1,329.9h1.4V327h-2.8v1.4C121.7,329.2,122.4,329.9,123.1,329.9z"/>
	<rect x="124.6" y="327" class="st23" width="2.9" height="2.9"/>
	<path class="st23" d="M128.8,329.9h-1.4V327h2.8v1.4C130.3,329.2,129.6,329.9,128.8,329.9z"/>
	<path class="st23" d="M49,332.7h1.4v-1.4C50.5,332.1,49.8,332.7,49,332.7z"/>
	<path class="st23" d="M53.3,332.7v-1.4c0-0.8-0.6-1.4-1.4-1.4s-1.4,0.6-1.4,1.4l0,0v1.4H53.3z"/>
	<path class="st23" d="M53.3,331.3v1.4h1.4C54,332.7,53.3,332.1,53.3,331.3z"/>
	<path class="st23" d="M59,329.9v1.4c0,0.8,0.6,1.4,1.4,1.4c0.8,0,1.4-0.6,1.4-1.4l0,0v-1.4H59z"/>
	<path class="st23" d="M61.9,331.3v-1.4h1.4C62.5,329.9,61.9,330.5,61.9,331.3z"/>
	<path class="st23" d="M67.6,329.9h-1.4c-0.8,0-1.4,0.6-1.4,1.4c0,0.8,0.6,1.4,1.4,1.4h1.4V329.9z"/>
	<path class="st23" d="M69,332.7h-1.4v-2.9h2.8v1.4C70.4,332.1,69.8,332.7,69,332.7z"/>
	<path class="st23" d="M107.5,332.7v-1.4c0-0.8-0.6-1.4-1.4-1.4c-0.8,0-1.4,0.6-1.4,1.4l0,0v1.4H107.5z"/>
	<path class="st23" d="M113.2,331.3v-1.4h-1.4C112.5,329.9,113.2,330.5,113.2,331.3z"/>
	<rect x="113.2" y="329.9" class="st23" width="2.9" height="2.9"/>
	<path class="st23" d="M116,331.3v-1.4h1.4C116.7,329.9,116,330.5,116,331.3z"/>
	<path class="st23" d="M47.6,334.2v1.4h2.8v-2.9H49C48.3,332.7,47.6,333.4,47.6,334.2z"/>
	<rect x="50.5" y="332.7" class="st23" width="2.9" height="2.9"/>
	<path class="st23" d="M56.2,334.2v1.4h-2.9v-2.9h1.4C55.5,332.7,56.2,333.4,56.2,334.2z"/>
	<path class="st23" d="M56.2,334.2v1.4h1.4C56.8,335.6,56.2,334.9,56.2,334.2z"/>
	<path class="st23" d="M104.6,332.7v1.4c0,0.8,0.6,1.4,1.4,1.4c0.8,0,1.4-0.6,1.4-1.4l0,0v-1.4H104.6z"/>
	<path class="st23" d="M113.2,332.7v1.4c0,0.8,0.6,1.4,1.4,1.4c0.8,0,1.4-0.6,1.4-1.4l0,0v-1.4H113.2z"/>
	<path class="st23" d="M118.9,334.2c0,0.8,0.6,1.4,1.4,1.4l0,0c0.8,0,1.4-0.6,1.4-1.4c0-0.8-0.6-1.4-1.4-1.4l0,0
		C119.5,332.7,118.9,333.4,118.9,334.2z"/>
	<path class="st23" d="M124.6,334.2c0,0.8,0.6,1.4,1.4,1.4l0,0c0.8,0,1.4-0.6,1.4-1.4c0-0.8-0.6-1.4-1.4-1.4l0,0
		C125.2,332.7,124.6,333.4,124.6,334.2z"/>
	<rect x="47.6" y="335.6" class="st23" width="2.9" height="2.9"/>
	<path class="st23" d="M50.5,337v-1.4h1.4C51.1,335.6,50.5,336.2,50.5,337z"/>
	<path class="st23" d="M53.3,337v-1.4h-1.4C52.7,335.6,53.3,336.2,53.3,337z"/>
	<path class="st23" d="M54.7,338.4h1.4v-2.9h-2.9v1.4C53.3,337.8,54,338.4,54.7,338.4z"/>
	<rect x="56.2" y="335.6" class="st23" width="2.9" height="2.9"/>
	<path class="st23" d="M59,338.4h1.4c0.8,0,1.4-0.6,1.4-1.4c0-0.8-0.6-1.4-1.4-1.4H59V338.4z"/>
	<path class="st23" d="M67.6,335.6h-1.4c-0.8,0-1.4,0.6-1.4,1.4c0,0.8,0.6,1.4,1.4,1.4h1.4V335.6z"/>
	<path class="st23" d="M70.4,337v1.4h-2.8v-2.9H69C69.8,335.6,70.4,336.2,70.4,337z"/>
	<path class="st23" d="M70.4,337v1.4h1.4C71.1,338.4,70.4,337.8,70.4,337z"/>
	<path class="st23" d="M107.5,337c0,0.8,0.6,1.4,1.4,1.4l0,0c0.8,0,1.4-0.6,1.4-1.4c0-0.8-0.6-1.4-1.4-1.4l0,0
		C108.1,335.6,107.5,336.2,107.5,337z"/>
	<path class="st23" d="M121.7,337c0,0.8,0.6,1.4,1.4,1.4l0,0c0.8,0,1.4-0.6,1.4-1.4c0-0.8-0.6-1.4-1.4-1.4l0,0
		C122.4,335.6,121.7,336.2,121.7,337z"/>
	<rect x="47.6" y="338.4" class="st23" width="2.9" height="2.9"/>
	<path class="st23" d="M61.9,339.9c0,0.8,0.6,1.4,1.4,1.4l0,0c0.8,0,1.4-0.6,1.4-1.4c0-0.8-0.6-1.4-1.4-1.4l0,0
		C62.5,338.4,61.9,339.1,61.9,339.9z"/>
	<path class="st23" d="M67.6,339.9v-1.4h-1.4C66.9,338.4,67.6,339.1,67.6,339.9z"/>
	<path class="st23" d="M69,341.3h1.4v-2.9h-2.8v1.4C67.6,340.6,68.2,341.3,69,341.3z"/>
	<path class="st23" d="M70.4,341.3h1.4c0.8,0,1.4-0.6,1.4-1.4c0-0.8-0.6-1.4-1.4-1.4h-1.4V341.3z"/>
	<path class="st23" d="M107.5,341.3v-1.4c0-0.8-0.6-1.4-1.4-1.4c-0.8,0-1.4,0.6-1.4,1.4l0,0v1.4H107.5z"/>
	<path class="st23" d="M108.9,341.3h1.4v-1.4C110.3,340.6,109.7,341.3,108.9,341.3z"/>
	<path class="st23" d="M107.5,339.9v1.4h1.4C108.1,341.3,107.5,340.6,107.5,339.9z"/>
	<path class="st23" d="M113.2,341.3v-1.4c0-0.8-0.6-1.4-1.4-1.4s-1.4,0.6-1.4,1.4l0,0v1.4H113.2z"/>
	<path class="st23" d="M114.6,341.3h1.4v-1.4C116,340.6,115.4,341.3,114.6,341.3z"/>
	<path class="st23" d="M113.2,339.9v1.4h1.4C113.8,341.3,113.2,340.6,113.2,339.9z"/>
	<path class="st23" d="M116,339.9v1.4h2.8v-2.9h-1.4C116.7,338.4,116,339.1,116,339.9z"/>
	<path class="st23" d="M118.9,341.3h1.4c0.8,0,1.4-0.6,1.4-1.4c0-0.8-0.6-1.4-1.4-1.4h-1.4V341.3z"/>
	<path class="st23" d="M124.6,339.9v1.4h2.9v-2.9H126C125.2,338.4,124.6,339.1,124.6,339.9z"/>
	<path class="st23" d="M130.3,339.9v1.4h-2.8v-2.9h1.4C129.6,338.4,130.3,339.1,130.3,339.9z"/>
	<path class="st23" d="M47.6,341.3v1.4c0,0.8,0.6,1.4,1.4,1.4s1.4-0.6,1.4-1.4l0,0v-1.4H47.6z"/>
	<path class="st23" d="M56.2,341.3h-1.4c-0.8,0-1.4,0.6-1.4,1.4s0.6,1.4,1.4,1.4h1.4V341.3z"/>
	<path class="st23" d="M56.2,344.1h1.4c0.8,0,1.4-0.6,1.4-1.4s-0.6-1.4-1.4-1.4h-1.4V344.1z"/>
	<path class="st23" d="M64.7,342.7c0,0.8,0.6,1.4,1.4,1.4l0,0c0.8,0,1.4-0.6,1.4-1.4s-0.6-1.4-1.4-1.4l0,0
		C65.4,341.3,64.7,341.9,64.7,342.7z"/>
	<path class="st23" d="M81.8,341.3h-1.4c-0.8,0-1.4,0.6-1.4,1.4s0.6,1.4,1.4,1.4h1.4V341.3z"/>
	<rect x="81.8" y="341.3" class="st23" width="2.9" height="2.9"/>
	<path class="st23" d="M84.7,344.1h1.4c0.8,0,1.4-0.6,1.4-1.4s-0.6-1.4-1.4-1.4h-1.4V344.1z"/>
	<path class="st23" d="M101.8,344.1v-1.4c0-0.8-0.6-1.4-1.4-1.4c-0.8,0-1.4,0.6-1.4,1.4l0,0v1.4H101.8z"/>
	<path class="st23" d="M103.2,344.1h1.4v-1.4C104.6,343.5,104,344.1,103.2,344.1z"/>
	<path class="st23" d="M101.8,342.7v1.4h1.4C102.4,344.1,101.8,343.5,101.8,342.7z"/>
	<rect x="104.6" y="341.3" class="st23" width="2.9" height="2.9"/>
	<rect x="107.5" y="341.3" class="st23" width="2.9" height="2.9"/>
	<rect x="110.3" y="341.3" class="st23" width="2.9" height="2.9"/>
	<rect x="113.2" y="341.3" class="st23" width="2.9" height="2.9"/>
	<rect x="116" y="341.3" class="st23" width="2.9" height="2.9"/>
	<path class="st23" d="M118.9,342.7v-1.4h1.4C119.5,341.3,118.9,341.9,118.9,342.7z"/>
	<path class="st23" d="M118.9,342.7v1.4h1.4C119.5,344.1,118.9,343.5,118.9,342.7z"/>
	<path class="st23" d="M126,344.1h1.4v-2.8h-2.9v1.4C124.6,343.5,125.2,344.1,126,344.1z"/>
	<rect x="127.4" y="341.3" class="st23" width="2.9" height="2.9"/>
	<path class="st23" d="M70.4,345.6c0,0.8,0.6,1.4,1.4,1.4l0,0c0.8,0,1.4-0.6,1.4-1.4c0-0.8-0.6-1.4-1.4-1.4l0,0
		C71.1,344.1,70.4,344.8,70.4,345.6z"/>
	<path class="st23" d="M81.8,345.6v-1.4h-1.4C81.2,344.1,81.8,344.8,81.8,345.6z"/>
	<path class="st23" d="M81.8,344.1v1.4c0,0.8,0.6,1.4,1.4,1.4c0.8,0,1.4-0.6,1.4-1.4l0,0v-1.4H81.8z"/>
	<path class="st23" d="M84.7,345.6v-1.4h1.4C85.3,344.1,84.7,344.8,84.7,345.6z"/>
	<path class="st23" d="M90.4,344.1h-1.4c-0.8,0-1.4,0.6-1.4,1.4c0,0.8,0.6,1.4,1.4,1.4h1.4V344.1z"/>
	<rect x="90.4" y="344.1" class="st23" width="2.9" height="2.9"/>
	<path class="st23" d="M93.2,347h1.4c0.8,0,1.4-0.6,1.4-1.4c0-0.8-0.6-1.4-1.4-1.4h-1.4V347z"/>
	<rect x="98.9" y="344.1" class="st23" width="2.9" height="2.9"/>
	<rect x="101.8" y="344.1" class="st23" width="2.9" height="2.9"/>
	<rect x="104.6" y="344.1" class="st23" width="2.9" height="2.9"/>
	<path class="st23" d="M107.5,345.6v-1.4h1.4C108.1,344.1,107.5,344.8,107.5,345.6z"/>
	<path class="st23" d="M116,345.6v-1.4h-1.4C115.4,344.1,116,344.8,116,345.6z"/>
	<rect x="116" y="344.1" class="st23" width="2.9" height="2.9"/>
	<path class="st23" d="M121.7,345.6v1.4h-2.8v-2.9h1.4C121.1,344.1,121.7,344.8,121.7,345.6z"/>
	<path class="st23" d="M121.7,345.6v1.4h1.4C122.4,347,121.7,346.3,121.7,345.6z"/>
	<path class="st23" d="M127.4,345.6v-1.4H126C126.8,344.1,127.4,344.8,127.4,345.6z"/>
	<path class="st23" d="M127.4,344.1v1.4c0,0.8,0.6,1.4,1.4,1.4c0.8,0,1.4-0.6,1.4-1.4l0,0v-1.4H127.4z"/>
	<path class="st23" d="M73.3,348.4v1.4h2.8V347h-1.4C73.9,347,73.3,347.6,73.3,348.4z"/>
	<path class="st23" d="M76.1,349.8h1.4c0.8,0,1.4-0.6,1.4-1.4c0-0.8-0.6-1.4-1.4-1.4h-1.4V349.8z"/>
	<path class="st23" d="M100.3,349.8h1.4V347h-2.8v1.4C98.9,349.2,99.6,349.8,100.3,349.8z"/>
	<rect x="101.8" y="347" class="st23" width="2.9" height="2.9"/>
	<rect x="104.6" y="347" class="st23" width="2.9" height="2.9"/>
	<path class="st23" d="M110.3,348.4c0,0.8,0.6,1.4,1.4,1.4l0,0c0.8,0,1.4-0.6,1.4-1.4c0-0.8-0.6-1.4-1.4-1.4l0,0
		C111,347,110.3,347.6,110.3,348.4z"/>
	<rect x="116" y="347" class="st23" width="2.9" height="2.9"/>
	<rect x="118.9" y="347" class="st23" width="2.9" height="2.9"/>
	<rect x="121.7" y="347" class="st23" width="2.9" height="2.9"/>
	<path class="st23" d="M127.4,348.4v1.4h-2.9V347h1.4C126.8,347,127.4,347.6,127.4,348.4z"/>
	<path class="st23" d="M127.4,348.4v1.4h1.4C128.1,349.8,127.4,349.2,127.4,348.4z"/>
	<path class="st23" d="M71.8,352.7h1.4v-1.4C73.3,352,72.6,352.7,71.8,352.7z"/>
	<rect x="73.3" y="349.8" class="st23" width="2.9" height="2.9"/>
	<path class="st23" d="M76.1,351.3v-1.4h1.4C76.8,349.8,76.1,350.5,76.1,351.3z"/>
	<path class="st23" d="M76.1,351.3v1.4h1.4C76.8,352.7,76.1,352,76.1,351.3z"/>
	<path class="st23" d="M86.1,352.7h1.4v-1.4C87.5,352,86.9,352.7,86.1,352.7z"/>
	<path class="st23" d="M90.4,352.7v-1.4c0-0.8-0.6-1.4-1.4-1.4c-0.8,0-1.4,0.6-1.4,1.4l0,0v1.4H90.4z"/>
	<path class="st23" d="M90.4,351.3v1.4h1.4C91,352.7,90.4,352,90.4,351.3z"/>
	<path class="st23" d="M96.1,351.3c0,0.8,0.6,1.4,1.4,1.4l0,0c0.8,0,1.4-0.6,1.4-1.4c0-0.8-0.6-1.4-1.4-1.4l0,0
		C96.7,349.8,96.1,350.5,96.1,351.3z"/>
	<path class="st23" d="M101.8,351.3v-1.4h-1.4C101.1,349.8,101.8,350.5,101.8,351.3z"/>
	<path class="st23" d="M100.3,352.7h1.4v-1.4C101.8,352,101.1,352.7,100.3,352.7z"/>
	<rect x="101.8" y="349.8" class="st23" width="2.9" height="2.9"/>
	<rect x="104.6" y="349.8" class="st23" width="2.9" height="2.9"/>
	<path class="st23" d="M107.5,351.3v1.4h1.4C108.1,352.7,107.5,352,107.5,351.3z"/>
	<path class="st23" d="M114.6,352.7h1.4v-1.4C116,352,115.4,352.7,114.6,352.7z"/>
	<rect x="116" y="349.8" class="st23" width="2.9" height="2.9"/>
	<path class="st23" d="M120.3,352.7h-1.4v-2.9h2.8v1.4C121.7,352,121.1,352.7,120.3,352.7z"/>
	<path class="st23" d="M121.7,351.3v-1.4h1.4C122.4,349.8,121.7,350.5,121.7,351.3z"/>
	<path class="st23" d="M124.6,351.3v-1.4h-1.4C123.9,349.8,124.6,350.5,124.6,351.3z"/>
	<path class="st23" d="M126,352.7h1.4v-2.9h-2.9v1.4C124.6,352,125.2,352.7,126,352.7z"/>
	<path class="st23" d="M127.4,352.7h1.4c0.8,0,1.4-0.6,1.4-1.4c0-0.8-0.6-1.4-1.4-1.4h-1.4V352.7z"/>
	<path class="st23" d="M70.4,354.1v1.4h2.9v-2.9h-1.4C71.1,352.7,70.4,353.3,70.4,354.1z"/>
	<rect x="73.3" y="352.7" class="st23" width="2.9" height="2.9"/>
	<rect x="76.1" y="352.7" class="st23" width="2.9" height="2.9"/>
	<path class="st23" d="M79,355.5h1.4c0.8,0,1.4-0.6,1.4-1.4c0-0.8-0.6-1.4-1.4-1.4H79V355.5z"/>
	<path class="st23" d="M84.7,354.1v1.4h2.9v-2.9h-1.4C85.3,352.7,84.7,353.3,84.7,354.1z"/>
	<rect x="87.5" y="352.7" class="st23" width="2.9" height="2.9"/>
	<path class="st23" d="M93.2,354.1v1.4h-2.8v-2.9h1.4C92.6,352.7,93.2,353.3,93.2,354.1z"/>
	<path class="st23" d="M101.8,352.7h-1.4c-0.8,0-1.4,0.6-1.4,1.4c0,0.8,0.6,1.4,1.4,1.4h1.4V352.7z"/>
	<rect x="101.8" y="352.7" class="st23" width="2.9" height="2.9"/>
	<rect x="104.6" y="352.7" class="st23" width="2.9" height="2.9"/>
	<rect x="107.5" y="352.7" class="st23" width="2.9" height="2.9"/>
	<rect x="110.3" y="352.7" class="st23" width="2.9" height="2.9"/>
	<rect x="113.2" y="352.7" class="st23" width="2.9" height="2.9"/>
	<rect x="116" y="352.7" class="st23" width="2.9" height="2.9"/>
	<path class="st23" d="M118.9,354.1v-1.4h1.4C119.5,352.7,118.9,353.3,118.9,354.1z"/>
	<path class="st23" d="M118.9,354.1v1.4h1.4C119.5,355.5,118.9,354.9,118.9,354.1z"/>
	<rect x="70.4" y="355.5" class="st23" width="2.9" height="2.9"/>
	<rect x="73.3" y="355.5" class="st23" width="2.9" height="2.9"/>
	<path class="st23" d="M76.1,357v-1.4h1.4C76.8,355.5,76.1,356.2,76.1,357z"/>
	<path class="st23" d="M83.2,358.4h1.4V357C84.7,357.7,84,358.4,83.2,358.4z"/>
	<rect x="84.7" y="355.5" class="st23" width="2.9" height="2.9"/>
	<path class="st23" d="M87.5,357v-1.4h1.4C88.2,355.5,87.5,356.2,87.5,357z"/>
	<path class="st23" d="M90.4,357v-1.4h-1.4C89.7,355.5,90.4,356.2,90.4,357z"/>
	<path class="st23" d="M88.9,358.4h1.4V357C90.4,357.7,89.7,358.4,88.9,358.4z"/>
	<path class="st23" d="M87.5,357v1.4h1.4C88.2,358.4,87.5,357.7,87.5,357z"/>
	<rect x="90.4" y="355.5" class="st23" width="2.9" height="2.9"/>
	<path class="st23" d="M98.9,358.4V357c0-0.8-0.6-1.4-1.4-1.4s-1.4,0.6-1.4,1.4l0,0v1.4H98.9z"/>
	<path class="st23" d="M98.9,357v1.4h1.4C99.6,358.4,98.9,357.7,98.9,357z"/>
	<path class="st23" d="M104.6,357v-1.4h-1.4C104,355.5,104.6,356.2,104.6,357z"/>
	<path class="st23" d="M106,358.4h1.4v-2.8h-2.8v1.4C104.6,357.7,105.3,358.4,106,358.4z"/>
	<rect x="107.5" y="355.5" class="st23" width="2.9" height="2.9"/>
	<rect x="110.3" y="355.5" class="st23" width="2.9" height="2.9"/>
	<path class="st23" d="M113.2,357v-1.4h1.4C113.8,355.5,113.2,356.2,113.2,357z"/>
	<path class="st23" d="M116,357v-1.4h-1.4C115.4,355.5,116,356.2,116,357z"/>
	<path class="st23" d="M114.6,358.4h1.4V357C116,357.7,115.4,358.4,114.6,358.4z"/>
	<path class="st23" d="M113.2,357v1.4h1.4C113.8,358.4,113.2,357.7,113.2,357z"/>
	<rect x="116" y="355.5" class="st23" width="2.9" height="2.9"/>
	<path class="st23" d="M118.9,358.4h1.4c0.8,0,1.4-0.6,1.4-1.4s-0.6-1.4-1.4-1.4h-1.4V358.4z"/>
	<path class="st23" d="M71.8,361.2h1.4v-2.9h-2.9v1.4C70.4,360.6,71.1,361.2,71.8,361.2z"/>
	<rect x="73.3" y="358.4" class="st23" width="2.9" height="2.9"/>
	<path class="st23" d="M79,359.8v1.4h2.8v-2.9h-1.4C79.6,358.4,79,359,79,359.8z"/>
	<rect x="81.8" y="358.4" class="st23" width="2.9" height="2.9"/>
	<rect x="84.7" y="358.4" class="st23" width="2.9" height="2.9"/>
	<rect x="87.5" y="358.4" class="st23" width="2.9" height="2.9"/>
	<path class="st23" d="M91.8,361.2h-1.4v-2.9h2.8v1.4C93.2,360.6,92.6,361.2,91.8,361.2z"/>
	<rect x="96.1" y="358.4" class="st23" width="2.9" height="2.9"/>
	<path class="st23" d="M101.8,359.8v1.4h-2.8v-2.9h1.4C101.1,358.4,101.8,359,101.8,359.8z"/>
	<path class="st23" d="M107.5,359.8v-1.4H106C106.8,358.4,107.5,359,107.5,359.8z"/>
	<path class="st23" d="M108.9,361.2h1.4v-2.9h-2.8v1.4C107.5,360.6,108.1,361.2,108.9,361.2z"/>
	<rect x="110.3" y="358.4" class="st23" width="2.9" height="2.9"/>
	<rect x="113.2" y="358.4" class="st23" width="2.9" height="2.9"/>
	<path class="st23" d="M117.4,361.2H116v-2.9h2.8v1.4C118.9,360.6,118.2,361.2,117.4,361.2z"/>
	<path class="st23" d="M118.9,359.8v-1.4h1.4C119.5,358.4,118.9,359,118.9,359.8z"/>
	<path class="st23" d="M124.6,358.4h-1.4c-0.8,0-1.4,0.6-1.4,1.4s0.6,1.4,1.4,1.4h1.4V358.4z"/>
	<path class="st23" d="M124.6,361.2h1.4c0.8,0,1.4-0.6,1.4-1.4s-0.6-1.4-1.4-1.4h-1.4V361.2z"/>
	<path class="st23" d="M73.3,362.7v-1.4h-1.4C72.6,361.2,73.3,361.9,73.3,362.7z"/>
	<path class="st23" d="M73.3,361.2v1.4c0,0.8,0.6,1.4,1.4,1.4c0.8,0,1.4-0.6,1.4-1.4l0,0v-1.4H73.3z"/>
	<path class="st23" d="M77.5,364.1H79v-1.4C79,363.4,78.3,364.1,77.5,364.1z"/>
	<rect x="79" y="361.2" class="st23" width="2.9" height="2.9"/>
	<path class="st23" d="M83.2,364.1h-1.4v-2.9h2.8v1.4C84.7,363.4,84,364.1,83.2,364.1z"/>
	<path class="st23" d="M84.7,362.7v-1.4h1.4C85.3,361.2,84.7,361.9,84.7,362.7z"/>
	<path class="st23" d="M87.5,362.7v-1.4h-1.4C86.9,361.2,87.5,361.9,87.5,362.7z"/>
	<rect x="87.5" y="361.2" class="st23" width="2.9" height="2.9"/>
	<path class="st23" d="M90.4,362.7v-1.4h1.4C91,361.2,90.4,361.9,90.4,362.7z"/>
	<path class="st23" d="M90.4,362.7v1.4h1.4C91,364.1,90.4,363.4,90.4,362.7z"/>
	<rect x="96.1" y="361.2" class="st23" width="2.9" height="2.9"/>
	<rect x="98.9" y="361.2" class="st23" width="2.9" height="2.9"/>
	<path class="st23" d="M103.2,364.1h1.4v-1.4C104.6,363.4,104,364.1,103.2,364.1z"/>
	<path class="st23" d="M101.8,362.7v1.4h1.4C102.4,364.1,101.8,363.4,101.8,362.7z"/>
	<path class="st23" d="M107.5,364.1v-1.4c0-0.8-0.6-1.4-1.4-1.4c-0.8,0-1.4,0.6-1.4,1.4l0,0v1.4H107.5z"/>
	<path class="st23" d="M107.5,362.7v1.4h1.4C108.1,364.1,107.5,363.4,107.5,362.7z"/>
	<path class="st23" d="M113.2,362.7v-1.4h-1.4C112.5,361.2,113.2,361.9,113.2,362.7z"/>
	<path class="st23" d="M111.7,364.1h1.4v-1.4C113.2,363.4,112.5,364.1,111.7,364.1z"/>
	<rect x="113.2" y="361.2" class="st23" width="2.9" height="2.9"/>
	<path class="st23" d="M116,362.7v-1.4h1.4C116.7,361.2,116,361.9,116,362.7z"/>
	<path class="st23" d="M117.4,364.1h1.4v-1.4C118.9,363.4,118.2,364.1,117.4,364.1z"/>
	<path class="st23" d="M116,362.7v1.4h1.4C116.7,364.1,116,363.4,116,362.7z"/>
	<path class="st23" d="M121.7,364.1v-1.4c0-0.8-0.6-1.4-1.4-1.4c-0.8,0-1.4,0.6-1.4,1.4l0,0v1.4H121.7z"/>
	<path class="st23" d="M127.4,362.7c0,0.8,0.6,1.4,1.4,1.4l0,0c0.8,0,1.4-0.6,1.4-1.4c0-0.8-0.6-1.4-1.4-1.4l0,0
		C128.1,361.2,127.4,361.9,127.4,362.7z"/>
	<path class="st23" d="M79,364.1h-1.4c-0.8,0-1.4,0.6-1.4,1.4c0,0.8,0.6,1.4,1.4,1.4H79V364.1z"/>
	<path class="st23" d="M80.4,366.9H79v-2.9h2.8v1.4C81.8,366.3,81.2,366.9,80.4,366.9z"/>
	<path class="st23" d="M81.8,365.5v-1.4h1.4C82.5,364.1,81.8,364.7,81.8,365.5z"/>
	<path class="st23" d="M88.9,366.9h1.4v-2.9h-2.8v1.4C87.5,366.3,88.2,366.9,88.9,366.9z"/>
	<path class="st23" d="M90.4,366.9h1.4c0.8,0,1.4-0.6,1.4-1.4c0-0.8-0.6-1.4-1.4-1.4h-1.4V366.9z"/>
	<path class="st23" d="M97.5,366.9h1.4v-2.9h-2.9v1.4C96.1,366.3,96.7,366.9,97.5,366.9z"/>
	<rect x="98.9" y="364.1" class="st23" width="2.9" height="2.9"/>
	<rect x="101.8" y="364.1" class="st23" width="2.9" height="2.9"/>
	<rect x="104.6" y="364.1" class="st23" width="2.9" height="2.9"/>
	<rect x="107.5" y="364.1" class="st23" width="2.9" height="2.9"/>
	<rect x="110.3" y="364.1" class="st23" width="2.9" height="2.9"/>
	<rect x="113.2" y="364.1" class="st23" width="2.9" height="2.9"/>
	<rect x="116" y="364.1" class="st23" width="2.9" height="2.9"/>
	<path class="st23" d="M120.3,366.9h-1.4v-2.9h2.8v1.4C121.7,366.3,121.1,366.9,120.3,366.9z"/>
	<path class="st23" d="M61.5,284.3h-7.9c-3.3,0-6,2.7-6,6v7.9c0,3.3,2.7,6,6,6h7.9c3.3,0,6-2.7,6-6v-7.9
		C67.6,287,64.9,284.3,61.5,284.3z M64.7,297.1c0,2.4-1.9,4.3-4.3,4.3h-5.6c-2.4,0-4.3-1.9-4.3-4.3v-5.6c0-2.4,1.9-4.3,4.3-4.3h5.6
		c2.4,0,4.3,1.9,4.3,4.3V297.1z"/>
	<path class="st23" d="M61.9,295.9c0,1.4-1.2,2.6-2.6,2.6h-3.4c-1.4,0-2.6-1.2-2.6-2.6v-3.4c0-1.4,1.2-2.6,2.6-2.6h3.4
		c1.4,0,2.6,1.2,2.6,2.6L61.9,295.9L61.9,295.9z"/>
	<path class="st23" d="M124.2,284.3h-7.9c-3.3,0-6,2.7-6,6v7.9c0,3.3,2.7,6,6,6h7.9c3.3,0,6-2.7,6-6v-7.9
		C130.3,287,127.6,284.3,124.2,284.3z M127.4,297.1c0,2.4-1.9,4.3-4.3,4.3h-5.6c-2.4,0-4.3-1.9-4.3-4.3v-5.6c0-2.4,1.9-4.3,4.3-4.3
		h5.6c2.4,0,4.3,1.9,4.3,4.3V297.1z"/>
	<path class="st23" d="M124.6,295.9c0,1.4-1.2,2.6-2.6,2.6h-3.4c-1.4,0-2.6-1.2-2.6-2.6v-3.4c0-1.4,1.2-2.6,2.6-2.6h3.4
		c1.4,0,2.6,1.2,2.6,2.6L124.6,295.9L124.6,295.9z"/>
	<path class="st23" d="M61.5,347h-7.9c-3.3,0-6,2.7-6,6v7.9c0,3.3,2.7,6,6,6h7.9c3.3,0,6-2.7,6-6V353C67.6,349.7,64.9,347,61.5,347z
		 M64.7,359.8c0,2.4-1.9,4.3-4.3,4.3h-5.6c-2.4,0-4.3-1.9-4.3-4.3v-5.6c0-2.4,1.9-4.3,4.3-4.3h5.6c2.4,0,4.3,1.9,4.3,4.3V359.8z"/>
	<path class="st23" d="M61.9,358.6c0,1.4-1.2,2.6-2.6,2.6h-3.4c-1.4,0-2.6-1.2-2.6-2.6v-3.4c0-1.4,1.2-2.6,2.6-2.6h3.4
		c1.4,0,2.6,1.2,2.6,2.6L61.9,358.6L61.9,358.6z"/>
	
		<image style="overflow:visible;enable-background:new    ;" width="200" height="200" xlink:href="EAABDE6CF570036A.png"  transform="matrix(0.107 0 0 0.107 77.5311 314.9021)">
	</image>
	<path class="st23" d="M40.6,81v-0.9c0-0.5-0.4-0.9-0.9-0.9s-0.9,0.4-0.9,0.9l0,0V81H40.6z"/>
	<path class="st23" d="M48,80.1c0,0.5,0.4,0.9,0.9,0.9l0,0c0.5,0,0.9-0.4,0.9-0.9c0-0.5-0.4-0.9-0.9-0.9l0,0
		C48.4,79.2,48,79.6,48,80.1z"/>
	<path class="st23" d="M53.5,80.1c0,0.5,0.4,0.9,0.9,0.9l0,0c0.5,0,0.9-0.4,0.9-0.9c0-0.5-0.4-0.9-0.9-0.9l0,0
		C53.9,79.2,53.5,79.6,53.5,80.1z"/>
	<path class="st23" d="M60.9,80.1c0,0.5,0.4,0.9,0.9,0.9l0,0c0.5,0,0.9-0.4,0.9-0.9c0-0.5-0.4-0.9-0.9-0.9l0,0
		C61.3,79.2,60.9,79.6,60.9,80.1z"/>
	<rect x="38.8" y="81" class="st23" width="1.8" height="1.8"/>
	<path class="st23" d="M40.6,81.9v0.9h0.9C41,82.9,40.6,82.5,40.6,81.9z"/>
	<path class="st23" d="M44.3,81.9v0.9h1.8V81h-0.9C44.7,81,44.3,81.4,44.3,81.9z"/>
	<path class="st23" d="M48,81.9v0.9h-1.8V81h0.9C47.6,81,48,81.4,48,81.9z"/>
	<path class="st23" d="M48,81.9v0.9h0.9C48.4,82.9,48,82.5,48,81.9z"/>
	<path class="st23" d="M51.7,81h-0.9c-0.5,0-0.9,0.4-0.9,0.9c0,0.5,0.4,0.9,0.9,0.9h0.9V81z"/>
	<path class="st23" d="M51.7,82.9h0.9c0.5,0,0.9-0.4,0.9-0.9c0-0.5-0.4-0.9-0.9-0.9h-0.9V82.9z"/>
	<path class="st23" d="M55.4,81.9c0,0.5,0.4,0.9,0.9,0.9l0,0c0.5,0,0.9-0.4,0.9-0.9c0-0.5-0.4-0.9-0.9-0.9l0,0
		C55.8,81,55.4,81.4,55.4,81.9z"/>
	<path class="st23" d="M39.7,84.7h0.9v-1.8h-1.8v0.9C38.8,84.3,39.2,84.7,39.7,84.7z"/>
	<path class="st23" d="M40.6,84.7h0.9c0.5,0,0.9-0.4,0.9-0.9c0-0.5-0.4-0.9-0.9-0.9h-0.9V84.7z"/>
	<path class="st23" d="M43.4,84.7h0.9v-0.9C44.3,84.3,43.9,84.7,43.4,84.7z"/>
	<rect x="44.3" y="82.9" class="st23" width="1.8" height="1.8"/>
	<rect x="46.1" y="82.9" class="st23" width="1.8" height="1.8"/>
	<path class="st23" d="M49.8,83.8v0.9H48v-1.8h0.9C49.4,82.9,49.8,83.3,49.8,83.8z"/>
	<path class="st23" d="M49.8,83.8v0.9h0.9C50.2,84.7,49.8,84.3,49.8,83.8z"/>
	<path class="st23" d="M53.5,83.8c0,0.5,0.4,0.9,0.9,0.9l0,0c0.5,0,0.9-0.4,0.9-0.9c0-0.5-0.4-0.9-0.9-0.9l0,0
		C53.9,82.9,53.5,83.3,53.5,83.8z"/>
	<path class="st23" d="M60.9,82.9H60c-0.5,0-0.9,0.4-0.9,0.9c0,0.5,0.4,0.9,0.9,0.9h0.9V82.9z"/>
	<path class="st23" d="M62.8,83.8v0.9h-1.8v-1.8h0.9C62.3,82.9,62.8,83.3,62.8,83.8z"/>
	<path class="st23" d="M41.5,86.6h0.9v-0.9C42.5,86.1,42,86.6,41.5,86.6z"/>
	<path class="st23" d="M42.5,85.6v0.9h1.8v-1.8h-0.9C42.9,84.7,42.5,85.1,42.5,85.6z"/>
	<path class="st23" d="M45.2,86.6h-0.9v-1.8h1.8v0.9C46.1,86.1,45.7,86.6,45.2,86.6z"/>
	<path class="st23" d="M46.1,85.6v-0.9h0.9C46.6,84.7,46.1,85.1,46.1,85.6z"/>
	<path class="st23" d="M48,85.6v-0.9h-0.9C47.6,84.7,48,85.1,48,85.6z"/>
	<path class="st23" d="M48.9,86.6h0.9v-1.8H48v0.9C48,86.1,48.4,86.6,48.9,86.6z"/>
	<rect x="49.8" y="84.7" class="st23" width="1.8" height="1.8"/>
	<path class="st23" d="M51.7,86.6h0.9c0.5,0,0.9-0.4,0.9-0.9c0-0.5-0.4-0.9-0.9-0.9h-0.9V86.6z"/>
	<path class="st23" d="M57.2,84.7h-0.9c-0.5,0-0.9,0.4-0.9,0.9c0,0.5,0.4,0.9,0.9,0.9h0.9V84.7z"/>
	<path class="st23" d="M59.1,85.6v0.9h-1.8v-1.8h0.9C58.7,84.7,59.1,85.1,59.1,85.6z"/>
	<path class="st23" d="M60.9,85.6v-0.9H60C60.5,84.7,60.9,85.1,60.9,85.6z"/>
	<path class="st23" d="M60.9,84.7v0.9c0,0.5,0.4,0.9,0.9,0.9s0.9-0.4,0.9-0.9l0,0v-0.9H60.9z"/>
	<path class="st23" d="M42.5,86.6h-0.9c-0.5,0-0.9,0.4-0.9,0.9c0,0.5,0.4,0.9,0.9,0.9h0.9V86.6z"/>
	<path class="st23" d="M43.4,88.4h-0.9v-1.8h1.8v0.9C44.3,88,43.9,88.4,43.4,88.4z"/>
	<path class="st23" d="M44.3,87.5v-0.9h0.9C44.7,86.6,44.3,87,44.3,87.5z"/>
	<path class="st23" d="M48,88.4v-0.9c0-0.5-0.4-0.9-0.9-0.9s-0.9,0.4-0.9,0.9l0,0v0.9H48z"/>
	<path class="st23" d="M57.2,87.5v-0.9h-0.9C56.8,86.6,57.2,87,57.2,87.5z"/>
	<rect x="57.2" y="86.6" class="st23" width="1.8" height="1.8"/>
	<path class="st23" d="M40.6,90.3v-0.9c0-0.5-0.4-0.9-0.9-0.9s-0.9,0.4-0.9,0.9l0,0v0.9H40.6z"/>
	<rect x="46.1" y="88.4" class="st23" width="1.8" height="1.8"/>
	<path class="st23" d="M49.8,89.3v0.9h1.8v-1.8h-0.9C50.2,88.4,49.8,88.8,49.8,89.3z"/>
	<path class="st23" d="M51.7,90.3h0.9c0.5,0,0.9-0.4,0.9-0.9c0-0.5-0.4-0.9-0.9-0.9h-0.9V90.3z"/>
	<rect x="57.2" y="88.4" class="st23" width="1.8" height="1.8"/>
	<path class="st23" d="M62.8,90.3v-0.9c0-0.5-0.4-0.9-0.9-0.9s-0.9,0.4-0.9,0.9l0,0v0.9H62.8z"/>
	<rect x="38.8" y="90.3" class="st23" width="1.8" height="1.8"/>
	<path class="st23" d="M42.5,91.2c0,0.5,0.4,0.9,0.9,0.9l0,0c0.5,0,0.9-0.4,0.9-0.9c0-0.5-0.4-0.9-0.9-0.9l0,0
		C42.9,90.3,42.5,90.7,42.5,91.2z"/>
	<path class="st23" d="M46.1,90.3v0.9c0,0.5,0.4,0.9,0.9,0.9s0.9-0.4,0.9-0.9l0,0v-0.9H46.1z"/>
	<path class="st23" d="M49.8,90.3v0.9c0,0.5,0.4,0.9,0.9,0.9s0.9-0.4,0.9-0.9l0,0v-0.9H49.8z"/>
	<path class="st23" d="M51.7,91.2v-0.9h0.9C52.1,90.3,51.7,90.7,51.7,91.2z"/>
	<path class="st23" d="M52.6,92.1h0.9v-0.9C53.5,91.7,53.1,92.1,52.6,92.1z"/>
	<path class="st23" d="M55.4,92.1v-0.9c0-0.5-0.4-0.9-0.9-0.9s-0.9,0.4-0.9,0.9l0,0v0.9H55.4z"/>
	<rect x="57.2" y="90.3" class="st23" width="1.8" height="1.8"/>
	<path class="st23" d="M60,92.1h0.9v-0.9C60.9,91.7,60.5,92.1,60,92.1z"/>
	<path class="st23" d="M59.1,91.2v0.9H60C59.5,92.1,59.1,91.7,59.1,91.2z"/>
	<rect x="60.9" y="90.3" class="st23" width="1.8" height="1.8"/>
	<rect x="38.8" y="92.1" class="st23" width="1.8" height="1.8"/>
	<path class="st23" d="M53.5,92.1h-0.9c-0.5,0-0.9,0.4-0.9,0.9c0,0.5,0.4,0.9,0.9,0.9h0.9V92.1z"/>
	<rect x="53.5" y="92.1" class="st23" width="1.8" height="1.8"/>
	<rect x="57.2" y="92.1" class="st23" width="1.8" height="1.8"/>
	<rect x="59.1" y="92.1" class="st23" width="1.8" height="1.8"/>
	<rect x="60.9" y="92.1" class="st23" width="1.8" height="1.8"/>
	<path class="st23" d="M62.8,93v0.9h0.9C63.2,93.9,62.8,93.5,62.8,93z"/>
	<path class="st23" d="M29.5,93.9h-0.9c-0.5,0-0.9,0.4-0.9,0.9c0,0.5,0.4,0.9,0.9,0.9h0.9V93.9z"/>
	<rect x="29.5" y="93.9" class="st23" width="1.8" height="1.8"/>
	<path class="st23" d="M33.2,94.9v0.9h-1.8v-1.8h0.9C32.8,93.9,33.2,94.4,33.2,94.9z"/>
	<path class="st23" d="M33.2,94.9v0.9h0.9C33.6,95.8,33.2,95.4,33.2,94.9z"/>
	<path class="st23" d="M35.1,94.9c0,0.5,0.4,0.9,0.9,0.9l0,0c0.5,0,0.9-0.4,0.9-0.9c0-0.5-0.4-0.9-0.9-0.9l0,0
		C35.5,93.9,35.1,94.4,35.1,94.9z"/>
	<rect x="38.8" y="93.9" class="st23" width="1.8" height="1.8"/>
	<path class="st23" d="M44.3,93.9h-0.9c-0.5,0-0.9,0.4-0.9,0.9c0,0.5,0.4,0.9,0.9,0.9h0.9V93.9z"/>
	<path class="st23" d="M44.3,95.8h0.9c0.5,0,0.9-0.4,0.9-0.9c0-0.5-0.4-0.9-0.9-0.9h-0.9V95.8z"/>
	<path class="st23" d="M53.5,94.9v-0.9h-0.9C53.1,93.9,53.5,94.4,53.5,94.9z"/>
	<path class="st23" d="M53.5,93.9v0.9c0,0.5,0.4,0.9,0.9,0.9s0.9-0.4,0.9-0.9l0,0v-0.9H53.5z"/>
	<path class="st23" d="M57.2,93.9v0.9c0,0.5,0.4,0.9,0.9,0.9s0.9-0.4,0.9-0.9l0,0v-0.9H57.2z"/>
	<path class="st23" d="M59.1,94.9v-0.9H60C59.5,93.9,59.1,94.4,59.1,94.9z"/>
	<path class="st23" d="M60.9,94.9v-0.9H60C60.5,93.9,60.9,94.4,60.9,94.9z"/>
	<path class="st23" d="M61.8,95.8h0.9v-1.8h-1.8v0.9C60.9,95.4,61.3,95.8,61.8,95.8z"/>
	<rect x="62.8" y="93.9" class="st23" width="1.8" height="1.8"/>
	<rect x="64.6" y="93.9" class="st23" width="1.8" height="1.8"/>
	<path class="st23" d="M66.5,95.8h0.9c0.5,0,0.9-0.4,0.9-0.9c0-0.5-0.4-0.9-0.9-0.9h-0.9V95.8z"/>
	<path class="st23" d="M73.8,93.9h-0.9c-0.5,0-0.9,0.4-0.9,0.9c0,0.5,0.4,0.9,0.9,0.9h0.9V93.9z"/>
	<rect x="73.8" y="93.9" class="st23" width="1.8" height="1.8"/>
	<path class="st23" d="M77.5,94.9v0.9h-1.8v-1.8h0.9C77.1,93.9,77.5,94.4,77.5,94.9z"/>
	<path class="st23" d="M24,96.7c0,0.5,0.4,0.9,0.9,0.9l0,0c0.5,0,0.9-0.4,0.9-0.9c0-0.5-0.4-0.9-0.9-0.9l0,0
		C24.4,95.8,24,96.2,24,96.7z"/>
	<path class="st23" d="M29.5,96.7v-0.9h-0.9C29.1,95.8,29.5,96.2,29.5,96.7z"/>
	<path class="st23" d="M30.4,97.6h0.9v-1.8h-1.8v0.9C29.5,97.2,29.9,97.6,30.4,97.6z"/>
	<rect x="31.4" y="95.8" class="st23" width="1.8" height="1.8"/>
	<path class="st23" d="M35.1,96.7v0.9h-1.8v-1.8h0.9C34.7,95.8,35.1,96.2,35.1,96.7z"/>
	<path class="st23" d="M35.1,96.7v0.9H36C35.5,97.6,35.1,97.2,35.1,96.7z"/>
	<path class="st23" d="M37.8,97.6h0.9v-0.9C38.8,97.2,38.3,97.6,37.8,97.6z"/>
	<rect x="38.8" y="95.8" class="st23" width="1.8" height="1.8"/>
	<path class="st23" d="M62.8,96.7v-0.9h-0.9C62.3,95.8,62.8,96.2,62.8,96.7z"/>
	<path class="st23" d="M63.7,97.6h0.9v-1.8h-1.8v0.9C62.8,97.2,63.2,97.6,63.7,97.6z"/>
	<path class="st23" d="M65.5,97.6h-0.9v-1.8h1.8v0.9C66.5,97.2,66,97.6,65.5,97.6z"/>
	<path class="st23" d="M66.5,96.7v-0.9h0.9C66.9,95.8,66.5,96.2,66.5,96.7z"/>
	<path class="st23" d="M73.8,96.7v-0.9h-0.9C73.4,95.8,73.8,96.2,73.8,96.7z"/>
	<path class="st23" d="M74.8,97.6h0.9v-1.8h-1.8v0.9C73.8,97.2,74.3,97.6,74.8,97.6z"/>
	<path class="st23" d="M76.6,97.6h-0.9v-1.8h1.8v0.9C77.5,97.2,77.1,97.6,76.6,97.6z"/>
	<path class="st23" d="M25.8,98.6c0,0.5,0.4,0.9,0.9,0.9l0,0c0.5,0,0.9-0.4,0.9-0.9c0-0.5-0.4-0.9-0.9-0.9l0,0
		C26.2,97.6,25.8,98.1,25.8,98.6z"/>
	<path class="st23" d="M31.4,98.6v-0.9h-0.9C31,97.6,31.4,98.1,31.4,98.6z"/>
	<rect x="31.4" y="97.6" class="st23" width="1.8" height="1.8"/>
	<rect x="33.2" y="97.6" class="st23" width="1.8" height="1.8"/>
	<rect x="35.1" y="97.6" class="st23" width="1.8" height="1.8"/>
	<rect x="36.9" y="97.6" class="st23" width="1.8" height="1.8"/>
	<rect x="38.8" y="97.6" class="st23" width="1.8" height="1.8"/>
	<path class="st23" d="M65.5,99.5h0.9v-0.9C66.5,99.1,66,99.5,65.5,99.5z"/>
	<path class="st23" d="M68.3,99.5v-0.9c0-0.5-0.4-0.9-0.9-0.9c-0.5,0-0.9,0.4-0.9,0.9l0,0v0.9H68.3z"/>
	<path class="st23" d="M68.3,98.6v0.9h0.9C68.7,99.5,68.3,99.1,68.3,98.6z"/>
	<path class="st23" d="M71.1,99.5H72v-0.9C72,99.1,71.6,99.5,71.1,99.5z"/>
	<path class="st23" d="M73.8,99.5v-0.9c0-0.5-0.4-0.9-0.9-0.9c-0.5,0-0.9,0.4-0.9,0.9l0,0v0.9H73.8z"/>
	<path class="st23" d="M32.3,101.3h0.9v-1.8h-1.8v0.9C31.4,100.9,31.8,101.3,32.3,101.3z"/>
	<rect x="33.2" y="99.5" class="st23" width="1.8" height="1.8"/>
	<path class="st23" d="M35.1,100.4v-0.9H36C35.5,99.5,35.1,99.9,35.1,100.4z"/>
	<path class="st23" d="M35.1,100.4v0.9H36C35.5,101.3,35.1,100.9,35.1,100.4z"/>
	<path class="st23" d="M38.8,100.4v-0.9h-0.9C38.3,99.5,38.8,99.9,38.8,100.4z"/>
	<path class="st23" d="M38.8,99.5v0.9c0,0.5,0.4,0.9,0.9,0.9s0.9-0.4,0.9-0.9l0,0v-0.9H38.8z"/>
	<path class="st23" d="M62.8,101.3v-0.9c0-0.5-0.4-0.9-0.9-0.9s-0.9,0.4-0.9,0.9l0,0v0.9H62.8z"/>
	<path class="st23" d="M62.8,100.4v0.9h0.9C63.2,101.3,62.8,100.9,62.8,100.4z"/>
	<path class="st23" d="M66.5,99.5h-0.9c-0.5,0-0.9,0.4-0.9,0.9c0,0.5,0.4,0.9,0.9,0.9h0.9V99.5z"/>
	<rect x="66.5" y="99.5" class="st23" width="1.8" height="1.8"/>
	<rect x="68.3" y="99.5" class="st23" width="1.8" height="1.8"/>
	<rect x="70.1" y="99.5" class="st23" width="1.8" height="1.8"/>
	<rect x="72" y="99.5" class="st23" width="1.8" height="1.8"/>
	<path class="st23" d="M73.8,100.4v0.9h0.9C74.3,101.3,73.8,100.9,73.8,100.4z"/>
	<path class="st23" d="M24,102.3v0.9h1.8v-1.8h-0.9C24.4,101.3,24,101.7,24,102.3z"/>
	<path class="st23" d="M25.8,103.2h0.9c0.5,0,0.9-0.4,0.9-0.9c0-0.5-0.4-0.9-0.9-0.9h-0.9V103.2z"/>
	<path class="st23" d="M33.2,102.3v-0.9h-0.9C32.8,101.3,33.2,101.7,33.2,102.3z"/>
	<path class="st23" d="M34.1,103.2h0.9v-1.8h-1.8v0.9C33.2,102.8,33.6,103.2,34.1,103.2z"/>
	<rect x="35.1" y="101.3" class="st23" width="1.8" height="1.8"/>
	<path class="st23" d="M38.8,102.3v0.9h-1.8v-1.8h0.9C38.3,101.3,38.8,101.7,38.8,102.3z"/>
	<path class="st23" d="M38.8,102.3v0.9h0.9C39.2,103.2,38.8,102.8,38.8,102.3z"/>
	<rect x="60.9" y="101.3" class="st23" width="1.8" height="1.8"/>
	<path class="st23" d="M62.8,103.2h0.9c0.5,0,0.9-0.4,0.9-0.9c0-0.5-0.4-0.9-0.9-0.9h-0.9V103.2z"/>
	<path class="st23" d="M68.3,102.3v-0.9h-0.9C67.9,101.3,68.3,101.7,68.3,102.3z"/>
	<rect x="68.3" y="101.3" class="st23" width="1.8" height="1.8"/>
	<path class="st23" d="M70.1,102.3v-0.9h0.9C70.6,101.3,70.1,101.7,70.1,102.3z"/>
	<path class="st23" d="M72,102.3v-0.9h-0.9C71.6,101.3,72,101.7,72,102.3z"/>
	<path class="st23" d="M70.1,102.3v0.9h0.9C70.6,103.2,70.1,102.8,70.1,102.3z"/>
	<path class="st23" d="M72.9,103.2h0.9v-1.8H72v0.9C72,102.8,72.4,103.2,72.9,103.2z"/>
	<path class="st23" d="M73.8,103.2h0.9c0.5,0,0.9-0.4,0.9-0.9c0-0.5-0.4-0.9-0.9-0.9h-0.9V103.2z"/>
	<rect x="24" y="103.2" class="st23" width="1.8" height="1.8"/>
	<path class="st23" d="M25.8,104.1v-0.9h0.9C26.2,103.2,25.8,103.6,25.8,104.1z"/>
	<path class="st23" d="M31.4,104.1c0,0.5,0.4,0.9,0.9,0.9l0,0c0.5,0,0.9-0.4,0.9-0.9c0-0.5-0.4-0.9-0.9-0.9l0,0
		C31.8,103.2,31.4,103.6,31.4,104.1z"/>
	<path class="st23" d="M36.9,104.1v-0.9H36C36.5,103.2,36.9,103.6,36.9,104.1z"/>
	<path class="st23" d="M36,105h0.9v-0.9C36.9,104.6,36.5,105,36,105z"/>
	<rect x="36.9" y="103.2" class="st23" width="1.8" height="1.8"/>
	<path class="st23" d="M40.6,104.1v0.9h-1.8v-1.8h0.9C40.2,103.2,40.6,103.6,40.6,104.1z"/>
	<path class="st23" d="M60.9,103.2v0.9c0,0.5,0.4,0.9,0.9,0.9s0.9-0.4,0.9-0.9l0,0v-0.9H60.9z"/>
	<path class="st23" d="M62.8,104.1v-0.9h0.9C63.2,103.2,62.8,103.6,62.8,104.1z"/>
	<path class="st23" d="M64.6,104.1c0,0.5,0.4,0.9,0.9,0.9l0,0c0.5,0,0.9-0.4,0.9-0.9c0-0.5-0.4-0.9-0.9-0.9l0,0
		C65,103.2,64.6,103.6,64.6,104.1z"/>
	<path class="st23" d="M69.2,105h0.9v-1.8h-1.8v0.9C68.3,104.6,68.7,105,69.2,105z"/>
	<path class="st23" d="M70.1,105h0.9c0.5,0,0.9-0.4,0.9-0.9c0-0.5-0.4-0.9-0.9-0.9h-0.9V105z"/>
	<path class="st23" d="M77.5,105v-0.9c0-0.5-0.4-0.9-0.9-0.9c-0.5,0-0.9,0.4-0.9,0.9l0,0v0.9H77.5z"/>
	<path class="st23" d="M24,105v0.9c0,0.5,0.4,0.9,0.9,0.9c0.5,0,0.9-0.4,0.9-0.9l0,0V105H24z"/>
	<path class="st23" d="M29.5,105.9c0,0.5,0.4,0.9,0.9,0.9l0,0c0.5,0,0.9-0.4,0.9-0.9c0-0.5-0.4-0.9-0.9-0.9l0,0
		C29.9,105,29.5,105.4,29.5,105.9z"/>
	<path class="st23" d="M32.3,106.9h0.9v-0.9C33.2,106.5,32.8,106.9,32.3,106.9z"/>
	<path class="st23" d="M33.2,105.9v0.9h1.8V105h-0.9C33.6,105,33.2,105.4,33.2,105.9z"/>
	<rect x="35.1" y="105" class="st23" width="1.8" height="1.8"/>
	<rect x="36.9" y="105" class="st23" width="1.8" height="1.8"/>
	<path class="st23" d="M39.7,106.9h-0.9V105h1.8v0.9C40.6,106.5,40.2,106.9,39.7,106.9z"/>
	<path class="st23" d="M65.5,106.9h0.9v-0.9C66.5,106.5,66,106.9,65.5,106.9z"/>
	<path class="st23" d="M68.3,106.9v-0.9c0-0.5-0.4-0.9-0.9-0.9c-0.5,0-0.9,0.4-0.9,0.9l0,0v0.9H68.3z"/>
	<path class="st23" d="M68.3,105.9v0.9h0.9C68.7,106.9,68.3,106.5,68.3,105.9z"/>
	<path class="st23" d="M73.8,106.9v-0.9c0-0.5-0.4-0.9-0.9-0.9c-0.5,0-0.9,0.4-0.9,0.9l0,0v0.9H73.8z"/>
	<path class="st23" d="M74.8,106.9h0.9v-0.9C75.7,106.5,75.3,106.9,74.8,106.9z"/>
	<path class="st23" d="M73.8,105.9v0.9h0.9C74.3,106.9,73.8,106.5,73.8,105.9z"/>
	<rect x="75.7" y="105" class="st23" width="1.8" height="1.8"/>
	<path class="st23" d="M27.7,107.8c0,0.5,0.4,0.9,0.9,0.9l0,0c0.5,0,0.9-0.4,0.9-0.9c0-0.5-0.4-0.9-0.9-0.9l0,0
		C28.1,106.9,27.7,107.3,27.7,107.8z"/>
	<path class="st23" d="M31.4,107.8v0.9h1.8v-1.8h-0.9C31.8,106.9,31.4,107.3,31.4,107.8z"/>
	<path class="st23" d="M34.1,108.7h-0.9v-1.8h1.8v0.9C35.1,108.3,34.7,108.7,34.1,108.7z"/>
	<path class="st23" d="M35.1,107.8v-0.9H36C35.5,106.9,35.1,107.3,35.1,107.8z"/>
	<path class="st23" d="M36.9,107.8v-0.9H36C36.5,106.9,36.9,107.3,36.9,107.8z"/>
	<path class="st23" d="M36,108.7h0.9v-0.9C36.9,108.3,36.5,108.7,36,108.7z"/>
	<rect x="36.9" y="106.9" class="st23" width="1.8" height="1.8"/>
	<path class="st23" d="M38.8,107.8v-0.9h0.9C39.2,106.9,38.8,107.3,38.8,107.8z"/>
	<path class="st23" d="M64.6,106.9h-0.9c-0.5,0-0.9,0.4-0.9,0.9c0,0.5,0.4,0.9,0.9,0.9h0.9V106.9z"/>
	<rect x="64.6" y="106.9" class="st23" width="1.8" height="1.8"/>
	<rect x="66.5" y="106.9" class="st23" width="1.8" height="1.8"/>
	<path class="st23" d="M68.3,108.7h0.9c0.5,0,0.9-0.4,0.9-0.9c0-0.5-0.4-0.9-0.9-0.9h-0.9V108.7z"/>
	<path class="st23" d="M72.9,108.7h0.9v-1.8H72v0.9C72,108.3,72.4,108.7,72.9,108.7z"/>
	<rect x="73.8" y="106.9" class="st23" width="1.8" height="1.8"/>
	<path class="st23" d="M76.6,108.7h-0.9v-1.8h1.8v0.9C77.5,108.3,77.1,108.7,76.6,108.7z"/>
	<path class="st23" d="M24.9,110.6h0.9v-0.9C25.8,110.2,25.4,110.6,24.9,110.6z"/>
	<path class="st23" d="M27.7,110.6v-0.9c0-0.5-0.4-0.9-0.9-0.9s-0.9,0.4-0.9,0.9l0,0v0.9H27.7z"/>
	<path class="st23" d="M27.7,109.6v0.9h0.9C28.1,110.6,27.7,110.2,27.7,109.6z"/>
	<path class="st23" d="M31.4,108.7v0.9c0,0.5,0.4,0.9,0.9,0.9s0.9-0.4,0.9-0.9l0,0v-0.9H31.4z"/>
	<path class="st23" d="M33.2,109.6v-0.9h0.9C33.6,108.7,33.2,109.1,33.2,109.6z"/>
	<path class="st23" d="M36.9,108.7H36c-0.5,0-0.9,0.4-0.9,0.9c0,0.5,0.4,0.9,0.9,0.9h0.9V108.7z"/>
	<path class="st23" d="M37.8,110.6h-0.9v-1.8h1.8v0.9C38.8,110.2,38.3,110.6,37.8,110.6z"/>
	<path class="st23" d="M62.8,110.6v-0.9c0-0.5-0.4-0.9-0.9-0.9s-0.9,0.4-0.9,0.9l0,0v0.9H62.8z"/>
	<path class="st23" d="M66.5,109.6v-0.9h-0.9C66,108.7,66.5,109.1,66.5,109.6z"/>
	<rect x="66.5" y="108.7" class="st23" width="1.8" height="1.8"/>
	<path class="st23" d="M68.3,109.6v-0.9h0.9C68.7,108.7,68.3,109.1,68.3,109.6z"/>
	<path class="st23" d="M24,111.5v0.9h1.8v-1.8h-0.9C24.4,110.6,24,111,24,111.5z"/>
	<rect x="25.8" y="110.6" class="st23" width="1.8" height="1.8"/>
	<path class="st23" d="M29.5,111.5v0.9h-1.8v-1.8h0.9C29.1,110.6,29.5,111,29.5,111.5z"/>
	<path class="st23" d="M29.5,111.5v0.9h0.9C29.9,112.4,29.5,112,29.5,111.5z"/>
	<path class="st23" d="M60.9,110.6v0.9c0,0.5,0.4,0.9,0.9,0.9s0.9-0.4,0.9-0.9l0,0v-0.9H60.9z"/>
	<path class="st23" d="M66.5,110.6v0.9c0,0.5,0.4,0.9,0.9,0.9c0.5,0,0.9-0.4,0.9-0.9l0,0v-0.9H66.5z"/>
	<path class="st23" d="M70.1,111.5c0,0.5,0.4,0.9,0.9,0.9l0,0c0.5,0,0.9-0.4,0.9-0.9c0-0.5-0.4-0.9-0.9-0.9l0,0
		C70.6,110.6,70.1,111,70.1,111.5z"/>
	<path class="st23" d="M73.8,111.5c0,0.5,0.4,0.9,0.9,0.9l0,0c0.5,0,0.9-0.4,0.9-0.9c0-0.5-0.4-0.9-0.9-0.9l0,0
		C74.3,110.6,73.8,111,73.8,111.5z"/>
	<rect x="24" y="112.4" class="st23" width="1.8" height="1.8"/>
	<path class="st23" d="M25.8,113.3v-0.9h0.9C26.2,112.4,25.8,112.8,25.8,113.3z"/>
	<path class="st23" d="M27.7,113.3v-0.9h-0.9C27.3,112.4,27.7,112.8,27.7,113.3z"/>
	<path class="st23" d="M28.6,114.3h0.9v-1.8h-1.8v0.9C27.7,113.8,28.1,114.3,28.6,114.3z"/>
	<rect x="29.5" y="112.4" class="st23" width="1.8" height="1.8"/>
	<path class="st23" d="M31.4,114.3h0.9c0.5,0,0.9-0.4,0.9-0.9c0-0.5-0.4-0.9-0.9-0.9h-0.9V114.3z"/>
	<path class="st23" d="M36.9,112.4H36c-0.5,0-0.9,0.4-0.9,0.9c0,0.5,0.4,0.9,0.9,0.9h0.9V112.4z"/>
	<path class="st23" d="M38.8,113.3v0.9h-1.8v-1.8h0.9C38.3,112.4,38.8,112.8,38.8,113.3z"/>
	<path class="st23" d="M38.8,113.3v0.9h0.9C39.2,114.3,38.8,113.8,38.8,113.3z"/>
	<path class="st23" d="M62.8,113.3c0,0.5,0.4,0.9,0.9,0.9l0,0c0.5,0,0.9-0.4,0.9-0.9c0-0.5-0.4-0.9-0.9-0.9l0,0
		C63.2,112.4,62.8,112.8,62.8,113.3z"/>
	<path class="st23" d="M72,113.3c0,0.5,0.4,0.9,0.9,0.9l0,0c0.5,0,0.9-0.4,0.9-0.9c0-0.5-0.4-0.9-0.9-0.9l0,0
		C72.4,112.4,72,112.8,72,113.3z"/>
	<rect x="24" y="114.3" class="st23" width="1.8" height="1.8"/>
	<path class="st23" d="M33.2,115.2c0,0.5,0.4,0.9,0.9,0.9l0,0c0.5,0,0.9-0.4,0.9-0.9c0-0.5-0.4-0.9-0.9-0.9l0,0
		C33.6,114.3,33.2,114.7,33.2,115.2z"/>
	<path class="st23" d="M36.9,115.2v-0.9H36C36.5,114.3,36.9,114.7,36.9,115.2z"/>
	<path class="st23" d="M37.8,116.1h0.9v-1.8h-1.8v0.9C36.9,115.7,37.3,116.1,37.8,116.1z"/>
	<path class="st23" d="M38.8,116.1h0.9c0.5,0,0.9-0.4,0.9-0.9c0-0.5-0.4-0.9-0.9-0.9h-0.9V116.1z"/>
	<path class="st23" d="M62.8,116.1v-0.9c0-0.5-0.4-0.9-0.9-0.9s-0.9,0.4-0.9,0.9l0,0v0.9H62.8z"/>
	<path class="st23" d="M63.7,116.1h0.9v-0.9C64.6,115.7,64.2,116.1,63.7,116.1z"/>
	<path class="st23" d="M62.8,115.2v0.9h0.9C63.2,116.1,62.8,115.7,62.8,115.2z"/>
	<path class="st23" d="M66.5,116.1v-0.9c0-0.5-0.4-0.9-0.9-0.9c-0.5,0-0.9,0.4-0.9,0.9l0,0v0.9H66.5z"/>
	<path class="st23" d="M67.4,116.1h0.9v-0.9C68.3,115.7,67.9,116.1,67.4,116.1z"/>
	<path class="st23" d="M66.5,115.2v0.9h0.9C66.9,116.1,66.5,115.7,66.5,115.2z"/>
	<path class="st23" d="M68.3,115.2v0.9h1.8v-1.8h-0.9C68.7,114.3,68.3,114.7,68.3,115.2z"/>
	<path class="st23" d="M70.1,116.1h0.9c0.5,0,0.9-0.4,0.9-0.9c0-0.5-0.4-0.9-0.9-0.9h-0.9V116.1z"/>
	<path class="st23" d="M73.8,115.2v0.9h1.8v-1.8h-0.9C74.3,114.3,73.8,114.7,73.8,115.2z"/>
	<path class="st23" d="M77.5,115.2v0.9h-1.8v-1.8h0.9C77.1,114.3,77.5,114.7,77.5,115.2z"/>
	<path class="st23" d="M24,116.1v0.9c0,0.5,0.4,0.9,0.9,0.9c0.5,0,0.9-0.4,0.9-0.9l0,0v-0.9H24z"/>
	<path class="st23" d="M29.5,116.1h-0.9c-0.5,0-0.9,0.4-0.9,0.9c0,0.5,0.4,0.9,0.9,0.9h0.9V116.1z"/>
	<path class="st23" d="M29.5,118h0.9c0.5,0,0.9-0.4,0.9-0.9c0-0.5-0.4-0.9-0.9-0.9h-0.9V118z"/>
	<path class="st23" d="M35.1,117c0,0.5,0.4,0.9,0.9,0.9l0,0c0.5,0,0.9-0.4,0.9-0.9c0-0.5-0.4-0.9-0.9-0.9l0,0
		C35.5,116.1,35.1,116.5,35.1,117z"/>
	<path class="st23" d="M46.1,116.1h-0.9c-0.5,0-0.9,0.4-0.9,0.9c0,0.5,0.4,0.9,0.9,0.9h0.9V116.1z"/>
	<rect x="46.1" y="116.1" class="st23" width="1.8" height="1.8"/>
	<path class="st23" d="M48,118h0.9c0.5,0,0.9-0.4,0.9-0.9c0-0.5-0.4-0.9-0.9-0.9H48V118z"/>
	<path class="st23" d="M59.1,118V117c0-0.5-0.4-0.9-0.9-0.9s-0.9,0.4-0.9,0.9l0,0v0.9H59.1z"/>
	<path class="st23" d="M60,118h0.9V117C60.9,117.5,60.5,118,60,118z"/>
	<path class="st23" d="M59.1,117v0.9H60C59.5,118,59.1,117.5,59.1,117z"/>
	<rect x="60.9" y="116.1" class="st23" width="1.8" height="1.8"/>
	<rect x="62.8" y="116.1" class="st23" width="1.8" height="1.8"/>
	<rect x="64.6" y="116.1" class="st23" width="1.8" height="1.8"/>
	<rect x="66.5" y="116.1" class="st23" width="1.8" height="1.8"/>
	<rect x="68.3" y="116.1" class="st23" width="1.8" height="1.8"/>
	<path class="st23" d="M70.1,117v-0.9h0.9C70.6,116.1,70.1,116.5,70.1,117z"/>
	<path class="st23" d="M70.1,117v0.9h0.9C70.6,118,70.1,117.5,70.1,117z"/>
	<path class="st23" d="M74.8,118h0.9v-1.8h-1.8v0.9C73.8,117.5,74.3,118,74.8,118z"/>
	<rect x="75.7" y="116.1" class="st23" width="1.8" height="1.8"/>
	<path class="st23" d="M38.8,118.9c0,0.5,0.4,0.9,0.9,0.9l0,0c0.5,0,0.9-0.4,0.9-0.9s-0.4-0.9-0.9-0.9l0,0
		C39.2,118,38.8,118.4,38.8,118.9z"/>
	<path class="st23" d="M46.1,118.9V118h-0.9C45.7,118,46.1,118.4,46.1,118.9z"/>
	<path class="st23" d="M46.1,118v0.9c0,0.5,0.4,0.9,0.9,0.9s0.9-0.4,0.9-0.9l0,0V118H46.1z"/>
	<path class="st23" d="M48,118.9V118h0.9C48.4,118,48,118.4,48,118.9z"/>
	<path class="st23" d="M51.7,118h-0.9c-0.5,0-0.9,0.4-0.9,0.9s0.4,0.9,0.9,0.9h0.9V118z"/>
	<rect x="51.7" y="118" class="st23" width="1.8" height="1.8"/>
	<path class="st23" d="M53.5,119.8h0.9c0.5,0,0.9-0.4,0.9-0.9S55,118,54.5,118h-0.9V119.8z"/>
	<rect x="57.2" y="118" class="st23" width="1.8" height="1.8"/>
	<rect x="59.1" y="118" class="st23" width="1.8" height="1.8"/>
	<rect x="60.9" y="118" class="st23" width="1.8" height="1.8"/>
	<path class="st23" d="M62.8,118.9V118h0.9C63.2,118,62.8,118.4,62.8,118.9z"/>
	<path class="st23" d="M68.3,118.9V118h-0.9C67.9,118,68.3,118.4,68.3,118.9z"/>
	<rect x="68.3" y="118" class="st23" width="1.8" height="1.8"/>
	<path class="st23" d="M72,118.9v0.9h-1.8V118h0.9C71.6,118,72,118.4,72,118.9z"/>
	<path class="st23" d="M72,118.9v0.9h0.9C72.4,119.8,72,119.4,72,118.9z"/>
	<path class="st23" d="M75.7,118.9V118h-0.9C75.3,118,75.7,118.4,75.7,118.9z"/>
	<path class="st23" d="M75.7,118v0.9c0,0.5,0.4,0.9,0.9,0.9c0.5,0,0.9-0.4,0.9-0.9l0,0V118H75.7z"/>
	<path class="st23" d="M40.6,120.7v0.9h1.8v-1.8h-0.9C41,119.8,40.6,120.2,40.6,120.7z"/>
	<path class="st23" d="M42.5,121.6h0.9c0.5,0,0.9-0.4,0.9-0.9c0-0.5-0.4-0.9-0.9-0.9h-0.9V121.6z"/>
	<path class="st23" d="M58.1,121.6h0.9v-1.8h-1.8v0.9C57.2,121.2,57.6,121.6,58.1,121.6z"/>
	<rect x="59.1" y="119.8" class="st23" width="1.8" height="1.8"/>
	<rect x="60.9" y="119.8" class="st23" width="1.8" height="1.8"/>
	<path class="st23" d="M64.6,120.7c0,0.5,0.4,0.9,0.9,0.9l0,0c0.5,0,0.9-0.4,0.9-0.9c0-0.5-0.4-0.9-0.9-0.9l0,0
		C65,119.8,64.6,120.2,64.6,120.7z"/>
	<rect x="68.3" y="119.8" class="st23" width="1.8" height="1.8"/>
	<rect x="70.1" y="119.8" class="st23" width="1.8" height="1.8"/>
	<rect x="72" y="119.8" class="st23" width="1.8" height="1.8"/>
	<path class="st23" d="M75.7,120.7v0.9h-1.8v-1.8h0.9C75.3,119.8,75.7,120.2,75.7,120.7z"/>
	<path class="st23" d="M75.7,120.7v0.9h0.9C76.1,121.6,75.7,121.2,75.7,120.7z"/>
	<path class="st23" d="M39.7,123.5h0.9v-0.9C40.6,123.1,40.2,123.5,39.7,123.5z"/>
	<rect x="40.6" y="121.6" class="st23" width="1.8" height="1.8"/>
	<path class="st23" d="M42.5,122.6v-0.9h0.9C42.9,121.6,42.5,122.1,42.5,122.6z"/>
	<path class="st23" d="M42.5,122.6v0.9h0.9C42.9,123.5,42.5,123.1,42.5,122.6z"/>
	<path class="st23" d="M48.9,123.5h0.9v-0.9C49.8,123.1,49.4,123.5,48.9,123.5z"/>
	<path class="st23" d="M51.7,123.5v-0.9c0-0.5-0.4-0.9-0.9-0.9s-0.9,0.4-0.9,0.9l0,0v0.9H51.7z"/>
	<path class="st23" d="M51.7,122.6v0.9h0.9C52.1,123.5,51.7,123.1,51.7,122.6z"/>
	<path class="st23" d="M55.4,122.6c0,0.5,0.4,0.9,0.9,0.9l0,0c0.5,0,0.9-0.4,0.9-0.9c0-0.5-0.4-0.9-0.9-0.9l0,0
		C55.8,121.6,55.4,122.1,55.4,122.6z"/>
	<path class="st23" d="M59.1,122.6v-0.9h-0.9C58.7,121.6,59.1,122.1,59.1,122.6z"/>
	<path class="st23" d="M58.1,123.5h0.9v-0.9C59.1,123.1,58.7,123.5,58.1,123.5z"/>
	<rect x="59.1" y="121.6" class="st23" width="1.8" height="1.8"/>
	<rect x="60.9" y="121.6" class="st23" width="1.8" height="1.8"/>
	<path class="st23" d="M62.8,122.6v0.9h0.9C63.2,123.5,62.8,123.1,62.8,122.6z"/>
	<path class="st23" d="M67.4,123.5h0.9v-0.9C68.3,123.1,67.9,123.5,67.4,123.5z"/>
	<rect x="68.3" y="121.6" class="st23" width="1.8" height="1.8"/>
	<path class="st23" d="M71.1,123.5h-0.9v-1.8H72v0.9C72,123.1,71.6,123.5,71.1,123.5z"/>
	<path class="st23" d="M72,122.6v-0.9h0.9C72.4,121.6,72,122.1,72,122.6z"/>
	<path class="st23" d="M73.8,122.6v-0.9h-0.9C73.4,121.6,73.8,122.1,73.8,122.6z"/>
	<path class="st23" d="M74.8,123.5h0.9v-1.8h-1.8v0.9C73.8,123.1,74.3,123.5,74.8,123.5z"/>
	<path class="st23" d="M75.7,123.5h0.9c0.5,0,0.9-0.4,0.9-0.9c0-0.5-0.4-0.9-0.9-0.9h-0.9V123.5z"/>
	<path class="st23" d="M38.8,124.4v0.9h1.8v-1.8h-0.9C39.2,123.5,38.8,123.9,38.8,124.4z"/>
	<rect x="40.6" y="123.5" class="st23" width="1.8" height="1.8"/>
	<rect x="42.5" y="123.5" class="st23" width="1.8" height="1.8"/>
	<path class="st23" d="M44.3,125.3h0.9c0.5,0,0.9-0.4,0.9-0.9c0-0.5-0.4-0.9-0.9-0.9h-0.9V125.3z"/>
	<path class="st23" d="M48,124.4v0.9h1.8v-1.8h-0.9C48.4,123.5,48,123.9,48,124.4z"/>
	<rect x="49.8" y="123.5" class="st23" width="1.8" height="1.8"/>
	<path class="st23" d="M53.5,124.4v0.9h-1.8v-1.8h0.9C53.1,123.5,53.5,123.9,53.5,124.4z"/>
	<path class="st23" d="M59.1,123.5h-0.9c-0.5,0-0.9,0.4-0.9,0.9c0,0.5,0.4,0.9,0.9,0.9h0.9V123.5z"/>
	<rect x="59.1" y="123.5" class="st23" width="1.8" height="1.8"/>
	<rect x="60.9" y="123.5" class="st23" width="1.8" height="1.8"/>
	<rect x="62.8" y="123.5" class="st23" width="1.8" height="1.8"/>
	<rect x="64.6" y="123.5" class="st23" width="1.8" height="1.8"/>
	<rect x="66.5" y="123.5" class="st23" width="1.8" height="1.8"/>
	<rect x="68.3" y="123.5" class="st23" width="1.8" height="1.8"/>
	<path class="st23" d="M70.1,124.4v-0.9h0.9C70.6,123.5,70.1,123.9,70.1,124.4z"/>
	<path class="st23" d="M70.1,124.4v0.9h0.9C70.6,125.3,70.1,124.9,70.1,124.4z"/>
	<rect x="38.8" y="125.3" class="st23" width="1.8" height="1.8"/>
	<rect x="40.6" y="125.3" class="st23" width="1.8" height="1.8"/>
	<path class="st23" d="M42.5,126.3v-0.9h0.9C42.9,125.3,42.5,125.7,42.5,126.3z"/>
	<path class="st23" d="M47.1,127.2H48v-0.9C48,126.8,47.6,127.2,47.1,127.2z"/>
	<rect x="48" y="125.3" class="st23" width="1.8" height="1.8"/>
	<path class="st23" d="M49.8,126.3v-0.9h0.9C50.2,125.3,49.8,125.7,49.8,126.3z"/>
	<path class="st23" d="M51.7,126.3v-0.9h-0.9C51.3,125.3,51.7,125.7,51.7,126.3z"/>
	<path class="st23" d="M50.8,127.2h0.9v-0.9C51.7,126.8,51.3,127.2,50.8,127.2z"/>
	<path class="st23" d="M49.8,126.3v0.9h0.9C50.2,127.2,49.8,126.8,49.8,126.3z"/>
	<rect x="51.7" y="125.3" class="st23" width="1.8" height="1.8"/>
	<path class="st23" d="M57.2,127.2v-0.9c0-0.5-0.4-0.9-0.9-0.9s-0.9,0.4-0.9,0.9l0,0v0.9H57.2z"/>
	<path class="st23" d="M57.2,126.3v0.9h0.9C57.6,127.2,57.2,126.8,57.2,126.3z"/>
	<path class="st23" d="M60.9,126.3v-0.9H60C60.5,125.3,60.9,125.7,60.9,126.3z"/>
	<path class="st23" d="M61.8,127.2h0.9v-1.8h-1.8v0.9C60.9,126.8,61.3,127.2,61.8,127.2z"/>
	<rect x="62.8" y="125.3" class="st23" width="1.8" height="1.8"/>
	<rect x="64.6" y="125.3" class="st23" width="1.8" height="1.8"/>
	<path class="st23" d="M66.5,126.3v-0.9h0.9C66.9,125.3,66.5,125.7,66.5,126.3z"/>
	<path class="st23" d="M68.3,126.3v-0.9h-0.9C67.9,125.3,68.3,125.7,68.3,126.3z"/>
	<path class="st23" d="M67.4,127.2h0.9v-0.9C68.3,126.8,67.9,127.2,67.4,127.2z"/>
	<path class="st23" d="M66.5,126.3v0.9h0.9C66.9,127.2,66.5,126.8,66.5,126.3z"/>
	<rect x="68.3" y="125.3" class="st23" width="1.8" height="1.8"/>
	<path class="st23" d="M70.1,127.2h0.9c0.5,0,0.9-0.4,0.9-0.9c0-0.5-0.4-0.9-0.9-0.9h-0.9V127.2z"/>
	<path class="st23" d="M39.7,129h0.9v-1.8h-1.8v0.9C38.8,128.6,39.2,129,39.7,129z"/>
	<rect x="40.6" y="127.2" class="st23" width="1.8" height="1.8"/>
	<path class="st23" d="M44.3,128.1v0.9h1.8v-1.8h-0.9C44.7,127.2,44.3,127.6,44.3,128.1z"/>
	<rect x="46.1" y="127.2" class="st23" width="1.8" height="1.8"/>
	<rect x="48" y="127.2" class="st23" width="1.8" height="1.8"/>
	<rect x="49.8" y="127.2" class="st23" width="1.8" height="1.8"/>
	<path class="st23" d="M52.6,129h-0.9v-1.8h1.8v0.9C53.5,128.6,53.1,129,52.6,129z"/>
	<rect x="55.4" y="127.2" class="st23" width="1.8" height="1.8"/>
	<path class="st23" d="M59.1,128.1v0.9h-1.8v-1.8h0.9C58.7,127.2,59.1,127.6,59.1,128.1z"/>
	<path class="st23" d="M62.8,128.1v-0.9h-0.9C62.3,127.2,62.8,127.6,62.8,128.1z"/>
	<path class="st23" d="M63.7,129h0.9v-1.8h-1.8v0.9C62.8,128.6,63.2,129,63.7,129z"/>
	<rect x="64.6" y="127.2" class="st23" width="1.8" height="1.8"/>
	<rect x="66.5" y="127.2" class="st23" width="1.8" height="1.8"/>
	<path class="st23" d="M69.2,129h-0.9v-1.8h1.8v0.9C70.1,128.6,69.7,129,69.2,129z"/>
	<path class="st23" d="M70.1,128.1v-0.9h0.9C70.6,127.2,70.1,127.6,70.1,128.1z"/>
	<path class="st23" d="M73.8,127.2h-0.9c-0.5,0-0.9,0.4-0.9,0.9c0,0.5,0.4,0.9,0.9,0.9h0.9V127.2z"/>
	<path class="st23" d="M73.8,129h0.9c0.5,0,0.9-0.4,0.9-0.9c0-0.5-0.4-0.9-0.9-0.9h-0.9V129z"/>
	<path class="st23" d="M40.6,130V129h-0.9C40.2,129,40.6,129.4,40.6,130z"/>
	<path class="st23" d="M40.6,129v0.9c0,0.5,0.4,0.9,0.9,0.9s0.9-0.4,0.9-0.9l0,0V129H40.6z"/>
	<path class="st23" d="M43.4,130.9h0.9V130C44.3,130.5,43.9,130.9,43.4,130.9z"/>
	<rect x="44.3" y="129" class="st23" width="1.8" height="1.8"/>
	<path class="st23" d="M47.1,130.9h-0.9V129H48v0.9C48,130.5,47.6,130.9,47.1,130.9z"/>
	<path class="st23" d="M48,130V129h0.9C48.4,129,48,129.4,48,130z"/>
	<path class="st23" d="M49.8,130V129h-0.9C49.4,129,49.8,129.4,49.8,130z"/>
	<rect x="49.8" y="129" class="st23" width="1.8" height="1.8"/>
	<path class="st23" d="M51.7,130V129h0.9C52.1,129,51.7,129.4,51.7,130z"/>
	<path class="st23" d="M51.7,130v0.9h0.9C52.1,130.9,51.7,130.5,51.7,130z"/>
	<rect x="55.4" y="129" class="st23" width="1.8" height="1.8"/>
	<rect x="57.2" y="129" class="st23" width="1.8" height="1.8"/>
	<path class="st23" d="M60,130.9h0.9V130C60.9,130.5,60.5,130.9,60,130.9z"/>
	<path class="st23" d="M59.1,130v0.9H60C59.5,130.9,59.1,130.5,59.1,130z"/>
	<path class="st23" d="M62.8,130.9V130c0-0.5-0.4-0.9-0.9-0.9s-0.9,0.4-0.9,0.9l0,0v0.9H62.8z"/>
	<path class="st23" d="M62.8,130v0.9h0.9C63.2,130.9,62.8,130.5,62.8,130z"/>
	<path class="st23" d="M66.5,130V129h-0.9C66,129,66.5,129.4,66.5,130z"/>
	<path class="st23" d="M65.5,130.9h0.9V130C66.5,130.5,66,130.9,65.5,130.9z"/>
	<rect x="66.5" y="129" class="st23" width="1.8" height="1.8"/>
	<path class="st23" d="M68.3,130V129h0.9C68.7,129,68.3,129.4,68.3,130z"/>
	<path class="st23" d="M69.2,130.9h0.9V130C70.1,130.5,69.7,130.9,69.2,130.9z"/>
	<path class="st23" d="M68.3,130v0.9h0.9C68.7,130.9,68.3,130.5,68.3,130z"/>
	<path class="st23" d="M72,130.9V130c0-0.5-0.4-0.9-0.9-0.9s-0.9,0.4-0.9,0.9l0,0v0.9H72z"/>
	<path class="st23" d="M75.7,130c0,0.5,0.4,0.9,0.9,0.9l0,0c0.5,0,0.9-0.4,0.9-0.9s-0.4-0.9-0.9-0.9l0,0
		C76.1,129,75.7,129.4,75.7,130z"/>
	<path class="st23" d="M44.3,130.9h-0.9c-0.5,0-0.9,0.4-0.9,0.9s0.4,0.9,0.9,0.9h0.9V130.9z"/>
	<path class="st23" d="M45.2,132.7h-0.9v-1.8h1.8v0.9C46.1,132.3,45.7,132.7,45.2,132.7z"/>
	<path class="st23" d="M46.1,131.8v-0.9h0.9C46.6,130.9,46.1,131.3,46.1,131.8z"/>
	<path class="st23" d="M50.8,132.7h0.9v-1.8h-1.8v0.9C49.8,132.3,50.2,132.7,50.8,132.7z"/>
	<path class="st23" d="M51.7,132.7h0.9c0.5,0,0.9-0.4,0.9-0.9s-0.4-0.9-0.9-0.9h-0.9V132.7z"/>
	<path class="st23" d="M56.3,132.7h0.9v-1.8h-1.8v0.9C55.4,132.3,55.8,132.7,56.3,132.7z"/>
	<rect x="57.2" y="130.9" class="st23" width="1.8" height="1.8"/>
	<rect x="59.1" y="130.9" class="st23" width="1.8" height="1.8"/>
	<rect x="60.9" y="130.9" class="st23" width="1.8" height="1.8"/>
	<rect x="62.8" y="130.9" class="st23" width="1.8" height="1.8"/>
	<rect x="64.6" y="130.9" class="st23" width="1.8" height="1.8"/>
	<rect x="66.5" y="130.9" class="st23" width="1.8" height="1.8"/>
	<rect x="68.3" y="130.9" class="st23" width="1.8" height="1.8"/>
	<path class="st23" d="M71.1,132.7h-0.9v-1.8H72v0.9C72,132.3,71.6,132.7,71.1,132.7z"/>
	<path class="st23" d="M33,79.2h-5.1c-2.2,0-3.9,1.7-3.9,3.9v5.1c0,2.2,1.7,3.9,3.9,3.9H33c2.2,0,3.9-1.7,3.9-3.9v-5.1
		C36.9,80.9,35.2,79.2,33,79.2z M35.1,87.5c0,1.5-1.2,2.8-2.8,2.8h-3.7c-1.5,0-2.8-1.2-2.8-2.8v-3.7c0-1.5,1.2-2.8,2.8-2.8h3.7
		c1.5,0,2.8,1.2,2.8,2.8V87.5z"/>
	<path class="st24" d="M33.2,86.7c0,0.9-0.7,1.7-1.7,1.7h-2.2c-0.9,0-1.7-0.7-1.7-1.7v-2.2c0-0.9,0.7-1.7,1.7-1.7h2.2
		c0.9,0,1.7,0.7,1.7,1.7L33.2,86.7L33.2,86.7z"/>
	<path class="st23" d="M73.6,79.2h-5.1c-2.2,0-3.9,1.7-3.9,3.9v5.1c0,2.2,1.7,3.9,3.9,3.9h5.1c2.2,0,3.9-1.7,3.9-3.9v-5.1
		C77.5,80.9,75.8,79.2,73.6,79.2z M75.7,87.5c0,1.5-1.2,2.8-2.8,2.8h-3.7c-1.5,0-2.8-1.2-2.8-2.8v-3.7c0-1.5,1.2-2.8,2.8-2.8h3.7
		c1.5,0,2.8,1.2,2.8,2.8V87.5z"/>
	<path class="st24" d="M73.8,86.7c0,0.9-0.7,1.7-1.7,1.7H70c-0.9,0-1.7-0.7-1.7-1.7v-2.2c0-0.9,0.7-1.7,1.7-1.7h2.2
		c0.9,0,1.7,0.7,1.7,1.7L73.8,86.7L73.8,86.7z"/>
	<path class="st23" d="M33,119.8h-5.1c-2.2,0-3.9,1.7-3.9,3.9v5.1c0,2.2,1.7,3.9,3.9,3.9H33c2.2,0,3.9-1.7,3.9-3.9v-5.1
		C36.9,121.5,35.2,119.8,33,119.8z M35.1,128.1c0,1.5-1.2,2.8-2.8,2.8h-3.7c-1.5,0-2.8-1.2-2.8-2.8v-3.7c0-1.5,1.2-2.8,2.8-2.8h3.7
		c1.5,0,2.8,1.2,2.8,2.8V128.1z"/>
	<path class="st23" d="M33.2,127.4c0,0.9-0.7,1.7-1.7,1.7h-2.2c-0.9,0-1.7-0.7-1.7-1.7v-2.2c0-0.9,0.7-1.7,1.7-1.7h2.2
		c0.9,0,1.7,0.7,1.7,1.7L33.2,127.4L33.2,127.4z"/>
	
		<rect x="44.8" y="136.1" transform="matrix(0.9907 -0.1359 0.1359 0.9907 -18.4171 8.5799)" class="st1" width="17.8" height="6.2"/>
</g>
</svg>
